<svg xmlns="http://www.w3.org/2000/svg" xmlns:xlink="http://www.w3.org/1999/xlink" viewBox="0 0 600 450"><defs><style>.cls-1{fill:none;}.cls-2{isolation:isolate;}.cls-3{opacity:0.3;}.cls-4{fill:#2c75e4;}.cls-12,.cls-13,.cls-20,.cls-21,.cls-28,.cls-29,.cls-43,.cls-5,.cls-50,.cls-6,.cls-7,.cls-8{opacity:0.4;}.cls-12,.cls-13,.cls-20,.cls-21,.cls-28,.cls-29,.cls-43,.cls-5,.cls-50,.cls-6,.cls-64,.cls-65,.cls-7,.cls-72,.cls-73,.cls-8,.cls-80,.cls-81,.cls-88,.cls-89{mix-blend-mode:lighten;}.cls-5{fill:url(#Áåçûìÿííûé_ãðàäèåíò_371);}.cls-6{fill:url(#Áåçûìÿííûé_ãðàäèåíò_371-2);}.cls-7{fill:url(#Áåçûìÿííûé_ãðàäèåíò_374);}.cls-8{fill:url(#Áåçûìÿííûé_ãðàäèåíò_374-2);}.cls-9{fill:#6ee8fc;}.cls-10{fill:url(#Áåçûìÿííûé_ãðàäèåíò_422);}.cls-11{fill:#70e8fc;}.cls-12{fill:url(#Áåçûìÿííûé_ãðàäèåíò_371-3);}.cls-13{fill:url(#Áåçûìÿííûé_ãðàäèåíò_374-3);}.cls-14,.cls-56{fill:#0c0f38;}.cls-14{opacity:0.6;}.cls-15{fill:url(#Áåçûìÿííûé_ãðàäèåíò_102);}.cls-16{fill:url(#Áåçûìÿííûé_ãðàäèåíò_377);}.cls-17{fill:url(#Áåçûìÿííûé_ãðàäèåíò_388);}.cls-18{fill:#d4088c;}.cls-19{fill:url(#Áåçûìÿííûé_ãðàäèåíò_300);}.cls-20{fill:url(#Áåçûìÿííûé_ãðàäèåíò_371-4);}.cls-21{fill:url(#Áåçûìÿííûé_ãðàäèåíò_374-4);}.cls-22{fill:url(#Áåçûìÿííûé_ãðàäèåíò_102-2);}.cls-23{fill:url(#Áåçûìÿííûé_ãðàäèåíò_377-2);}.cls-24{fill:url(#Áåçûìÿííûé_ãðàäèåíò_388-2);}.cls-25{fill:url(#Áåçûìÿííûé_ãðàäèåíò_300-2);}.cls-26{fill:#73fff5;}.cls-27{fill:#267fe5;}.cls-28{fill:url(#Áåçûìÿííûé_ãðàäèåíò_371-5);}.cls-29{fill:url(#Áåçûìÿííûé_ãðàäèåíò_374-5);}.cls-30{fill:url(#Áåçûìÿííûé_ãðàäèåíò_102-3);}.cls-31{fill:url(#Áåçûìÿííûé_ãðàäèåíò_377-3);}.cls-32{fill:url(#Áåçûìÿííûé_ãðàäèåíò_388-3);}.cls-33{fill:url(#Áåçûìÿííûé_ãðàäèåíò_300-3);}.cls-34{fill:url(#Áåçûìÿííûé_ãðàäèåíò_422-2);}.cls-35{fill:url(#Áåçûìÿííûé_ãðàäèåíò_377-4);}.cls-36{fill:url(#Áåçûìÿííûé_ãðàäèåíò_388-4);}.cls-37{fill:url(#Áåçûìÿííûé_ãðàäèåíò_300-4);}.cls-38{fill:url(#Áåçûìÿííûé_ãðàäèåíò_302);}.cls-39{fill:#6de0f6;}.cls-40{clip-path:url(#clip-path);}.cls-41{fill:#25bfec;}.cls-42{fill:#18d0f7;}.cls-43{fill:url(#Áåçûìÿííûé_ãðàäèåíò_370);}.cls-44{fill:url(#Áåçûìÿííûé_ãðàäèåíò_422-3);}.cls-45{fill:url(#Áåçûìÿííûé_ãðàäèåíò_377-5);}.cls-46{fill:url(#Áåçûìÿííûé_ãðàäèåíò_388-5);}.cls-47{fill:url(#Áåçûìÿííûé_ãðàäèåíò_300-5);}.cls-48{fill:url(#Áåçûìÿííûé_ãðàäèåíò_302-2);}.cls-49{clip-path:url(#clip-path-2);}.cls-50{fill:url(#Áåçûìÿííûé_ãðàäèåíò_370-2);}.cls-51{fill:url(#Áåçûìÿííûé_ãðàäèåíò_422-4);}.cls-52{fill:#4a0e91;}.cls-53{fill:url(#Áåçûìÿííûé_ãðàäèåíò_377-6);}.cls-54{fill:#35047c;}.cls-55{fill:url(#Áåçûìÿííûé_ãðàäèåíò_377-7);}.cls-56{opacity:0.8;}.cls-57{fill:url(#Áåçûìÿííûé_ãðàäèåíò_388-6);}.cls-58{fill:url(#Áåçûìÿííûé_ãðàäèåíò_377-8);}.cls-59{fill:url(#Áåçûìÿííûé_ãðàäèåíò_388-7);}.cls-60{fill:url(#Áåçûìÿííûé_ãðàäèåíò_300-6);}.cls-61{fill:url(#Áåçûìÿííûé_ãðàäèåíò_302-3);}.cls-62{clip-path:url(#clip-path-3);}.cls-63{fill:#480689;}.cls-64,.cls-72,.cls-80,.cls-88{opacity:0.2;}.cls-64{fill:url(#Áåçûìÿííûé_ãðàäèåíò_370-3);}.cls-65,.cls-73,.cls-81,.cls-89{opacity:0.25;}.cls-65{fill:url(#Áåçûìÿííûé_ãðàäèåíò_384);}.cls-66{fill:url(#Áåçûìÿííûé_ãðàäèåíò_388-8);}.cls-67{fill:url(#Áåçûìÿííûé_ãðàäèåíò_377-9);}.cls-68{fill:url(#Áåçûìÿííûé_ãðàäèåíò_388-9);}.cls-69{fill:url(#Áåçûìÿííûé_ãðàäèåíò_300-7);}.cls-70{fill:url(#Áåçûìÿííûé_ãðàäèåíò_302-4);}.cls-71{clip-path:url(#clip-path-4);}.cls-72{fill:url(#Áåçûìÿííûé_ãðàäèåíò_370-4);}.cls-73{fill:url(#Áåçûìÿííûé_ãðàäèåíò_384-2);}.cls-74{fill:url(#Áåçûìÿííûé_ãðàäèåíò_388-10);}.cls-75{fill:url(#Áåçûìÿííûé_ãðàäèåíò_377-10);}.cls-76{fill:url(#Áåçûìÿííûé_ãðàäèåíò_388-11);}.cls-77{fill:url(#Áåçûìÿííûé_ãðàäèåíò_300-8);}.cls-78{fill:url(#Áåçûìÿííûé_ãðàäèåíò_302-5);}.cls-79{clip-path:url(#clip-path-5);}.cls-80{fill:url(#Áåçûìÿííûé_ãðàäèåíò_370-5);}.cls-81{fill:url(#Áåçûìÿííûé_ãðàäèåíò_384-3);}.cls-82{fill:url(#Áåçûìÿííûé_ãðàäèåíò_388-12);}.cls-83{fill:url(#Áåçûìÿííûé_ãðàäèåíò_377-11);}.cls-84{fill:url(#Áåçûìÿííûé_ãðàäèåíò_388-13);}.cls-85{fill:url(#Áåçûìÿííûé_ãðàäèåíò_300-9);}.cls-86{fill:url(#Áåçûìÿííûé_ãðàäèåíò_302-6);}.cls-87{clip-path:url(#clip-path-6);}.cls-88{fill:url(#Áåçûìÿííûé_ãðàäèåíò_370-6);}.cls-89{fill:url(#Áåçûìÿííûé_ãðàäèåíò_384-4);}</style><radialGradient id="Áåçûìÿííûé_ãðàäèåíò_371" cx="-417.83" cy="-2015.58" r="93.12" gradientTransform="matrix(-0.87, 0.5, 0.87, 0.5, 1537.59, 1509.72)" gradientUnits="userSpaceOnUse"><stop offset="0.01" stop-color="#25bfec"/><stop offset="0.05" stop-color="#24b4e1"/><stop offset="0.22" stop-color="#1f83b0"/><stop offset="0.39" stop-color="#1b5a86"/><stop offset="0.56" stop-color="#173a66"/><stop offset="0.72" stop-color="#152350"/><stop offset="0.87" stop-color="#131642"/><stop offset="1" stop-color="#13113d"/></radialGradient><radialGradient id="Áåçûìÿííûé_ãðàäèåíò_371-2" cx="-351.33" cy="-1894.87" r="43.67" xlink:href="#Áåçûìÿííûé_ãðàäèåíò_371"/><radialGradient id="Áåçûìÿííûé_ãðàäèåíò_374" cx="-379.55" cy="-1869.13" r="43.67" gradientTransform="matrix(-0.87, 0.5, 0.87, 0.5, 1537.59, 1509.72)" gradientUnits="userSpaceOnUse"><stop offset="0.01" stop-color="#d4088c"/><stop offset="0.1" stop-color="#b70980"/><stop offset="0.26" stop-color="#860c6c"/><stop offset="0.42" stop-color="#5c0e5b"/><stop offset="0.58" stop-color="#3c0f4e"/><stop offset="0.73" stop-color="#261045"/><stop offset="0.87" stop-color="#18113f"/><stop offset="1" stop-color="#13113d"/></radialGradient><radialGradient id="Áåçûìÿííûé_ãðàäèåíò_374-2" cx="-562.45" cy="-1963.52" r="93.12" xlink:href="#Áåçûìÿííûé_ãðàäèåíò_374"/><linearGradient id="Áåçûìÿííûé_ãðàäèåíò_422" x1="3859.76" y1="262.17" x2="3964.33" y2="262.17" gradientTransform="matrix(-1, 0, 0, 1, 4343.98, 0)" gradientUnits="userSpaceOnUse"><stop offset="0" stop-color="#6ee8fc"/><stop offset="0.22" stop-color="#6ee8fc"/><stop offset="0.49" stop-color="#6ee1f8"/><stop offset="0.77" stop-color="#d4088c"/><stop offset="1" stop-color="#d4088c"/></linearGradient><radialGradient id="Áåçûìÿííûé_ãðàäèåíò_371-3" cx="717.76" cy="1921.36" fx="696.334300185932" fy="1930.5769511398594" r="33.5" gradientTransform="matrix(-0.86, 0.87, -0.54, -1.38, 1837.75, 2390.46)" xlink:href="#Áåçûìÿííûé_ãðàäèåíò_371"/><radialGradient id="Áåçûìÿííûé_ãðàäèåíò_374-3" cx="-2730.6" cy="-430.93" r="50.62" gradientTransform="matrix(0.87, 0.5, -0.87, 0.5, 2137.82, 1923.48)" xlink:href="#Áåçûìÿííûé_ãðàäèåíò_374"/><linearGradient id="Áåçûìÿííûé_ãðàäèåíò_102" x1="134.97" y1="348.54" x2="187.86" y2="348.54" gradientUnits="userSpaceOnUse"><stop offset="0" stop-color="#d4088c"/><stop offset="0.23" stop-color="#d4088c"/><stop offset="0.51" stop-color="#6ee1f8"/><stop offset="0.78" stop-color="#6ee8fc"/><stop offset="1" stop-color="#6ee8fc"/></linearGradient><linearGradient id="Áåçûìÿííûé_ãðàäèåíò_377" x1="136.03" y1="339.6" x2="188.06" y2="339.6" gradientUnits="userSpaceOnUse"><stop offset="0" stop-color="#a31fa9"/><stop offset="0.07" stop-color="#8b17a0"/><stop offset="0.15" stop-color="#740f98"/><stop offset="0.24" stop-color="#640a92"/><stop offset="0.34" stop-color="#5b078f"/><stop offset="0.48" stop-color="#58068e"/><stop offset="0.63" stop-color="#4d22a3"/><stop offset="0.94" stop-color="#3168da"/><stop offset="1" stop-color="#2c75e4"/></linearGradient><linearGradient id="Áåçûìÿííûé_ãðàäèåíò_388" x1="136.03" y1="345.37" x2="188.06" y2="345.37" xlink:href="#Áåçûìÿííûé_ãðàäèåíò_102"/><linearGradient id="Áåçûìÿííûé_ãðàäèåíò_300" x1="626.42" y1="927.73" x2="650.93" y2="906.51" gradientTransform="matrix(0.87, 0.5, -1, 0.58, 525, -518.49)" gradientUnits="userSpaceOnUse"><stop offset="0" stop-color="#8d139b"/><stop offset="0.17" stop-color="#851ba1"/><stop offset="0.43" stop-color="#6e33b2"/><stop offset="0.76" stop-color="#4958cd"/><stop offset="1" stop-color="#2979e4"/></linearGradient><radialGradient id="Áåçûìÿííûé_ãðàäèåíò_371-4" cx="702.65" cy="1761.93" fx="681.2224536367526" fy="1771.1508590219985" r="33.5" gradientTransform="matrix(-0.86, 0.87, -0.54, -1.38, 1957.46, 2110.31)" xlink:href="#Áåçûìÿííûé_ãðàäèåíò_371"/><radialGradient id="Áåçûìÿííûé_ãðàäèåíò_374-4" cx="-2677.21" cy="-629.29" r="50.62" gradientTransform="matrix(0.87, 0.5, -0.87, 0.5, 2137.82, 1923.48)" xlink:href="#Áåçûìÿííûé_ãðàäèåíò_374"/><linearGradient id="Áåçûìÿííûé_ãðàäèåíò_102-2" x1="353" y1="276.05" x2="405.88" y2="276.05" xlink:href="#Áåçûìÿííûé_ãðàäèåíò_102"/><linearGradient id="Áåçûìÿííûé_ãðàäèåíò_377-2" x1="354.05" y1="267.12" x2="406.08" y2="267.12" xlink:href="#Áåçûìÿííûé_ãðàäèåíò_377"/><linearGradient id="Áåçûìÿííûé_ãðàäèåíò_388-2" x1="354.05" y1="272.89" x2="406.08" y2="272.89" xlink:href="#Áåçûìÿííûé_ãðàäèåíò_102"/><linearGradient id="Áåçûìÿííûé_ãðàäèåíò_300-2" x1="679.82" y1="755.96" x2="704.33" y2="734.73" xlink:href="#Áåçûìÿííûé_ãðàäèåíò_300"/><radialGradient id="Áåçûìÿííûé_ãðàäèåíò_371-5" cx="641.09" cy="1954.2" fx="619.6644117995273" fy="1963.4209228378825" r="33.5" gradientTransform="matrix(-0.86, 0.87, -0.54, -1.38, 1684.42, 2441.18)" xlink:href="#Áåçûìÿííûé_ãðàäèåíò_371"/><radialGradient id="Áåçûìÿííûé_ãðàäèåíò_374-5" cx="-2848.49" cy="-429.14" r="34.1" gradientTransform="matrix(0.87, 0.5, -0.87, 0.5, 2137.82, 1923.48)" xlink:href="#Áåçûìÿííûé_ãðàäèåíò_374"/><linearGradient id="Áåçûìÿííûé_ãðàäèåíò_102-3" x1="29.68" y1="287.33" x2="82.56" y2="287.33" xlink:href="#Áåçûìÿííûé_ãðàäèåíò_102"/><linearGradient id="Áåçûìÿííûé_ãðàäèåíò_377-3" x1="30.73" y1="278.4" x2="82.76" y2="278.4" xlink:href="#Áåçûìÿííûé_ãðàäèåíò_377"/><linearGradient id="Áåçûìÿííûé_ãðàäèåíò_388-3" x1="30.73" y1="284.17" x2="82.76" y2="284.17" xlink:href="#Áåçûìÿííûé_ãðàäèåíò_102"/><linearGradient id="Áåçûìÿííûé_ãðàäèåíò_300-3" x1="504.42" y1="927.38" x2="528.93" y2="906.16" xlink:href="#Áåçûìÿííûé_ãðàäèåíò_300"/><linearGradient id="Áåçûìÿííûé_ãðàäèåíò_422-2" x1="4119.06" y1="360.08" x2="4127.08" y2="410.68" xlink:href="#Áåçûìÿííûé_ãðàäèåíò_422"/><linearGradient id="Áåçûìÿííûé_ãðàäèåíò_377-4" x1="4078.58" y1="377.34" x2="4169.75" y2="377.34" gradientTransform="matrix(-1, 0, 0, 1, 4343.98, 0)" xlink:href="#Áåçûìÿííûé_ãðàäèåíò_377"/><linearGradient id="Áåçûìÿííûé_ãðàäèåíò_388-4" x1="4078.58" y1="387.78" x2="4169.75" y2="387.78" gradientTransform="matrix(-1, 0, 0, 1, 4343.98, 0)" xlink:href="#Áåçûìÿííûé_ãðàäèåíò_102"/><linearGradient id="Áåçûìÿííûé_ãðàäèåíò_300-4" x1="2940.73" y1="-1013.36" x2="2983.74" y2="-1050.61" gradientTransform="matrix(-0.87, 0.5, 1, 0.58, 3818.98, -518.49)" xlink:href="#Áåçûìÿííûé_ãðàäèåíò_300"/><linearGradient id="Áåçûìÿííûé_ãðàäèåíò_302" x1="2946.34" y1="-1018.22" x2="2978.36" y2="-1045.95" gradientTransform="matrix(-0.87, 0.5, 1, 0.58, 3818.98, -518.49)" gradientUnits="userSpaceOnUse"><stop offset="0" stop-color="#630692"/><stop offset="0.23" stop-color="#5b0e94"/><stop offset="0.59" stop-color="#432399"/><stop offset="1" stop-color="#2142a1"/></linearGradient><clipPath id="clip-path"><path class="cls-1" d="M223.11,377.93l17.16-9.9c1.22-.7,1.06-1.93-.35-2.75l-16.46-9.5a5.25,5.25,0,0,0-4.76-.2l-17.15,9.9c-1.22.7-1.07,1.93.34,2.75l16.47,9.51A5.26,5.26,0,0,0,223.11,377.93Z"/></clipPath><linearGradient id="Áåçûìÿííûé_ãðàäèåíò_370" x1="4123.07" y1="378.41" x2="4123.07" y2="338.07" gradientTransform="matrix(-1, 0, 0, 1, 4343.98, 0)" xlink:href="#Áåçûìÿííûé_ãðàäèåíò_371"/><linearGradient id="Áåçûìÿííûé_ãðàäèåíò_422-3" x1="3979.11" y1="141.09" x2="3987.13" y2="191.7" xlink:href="#Áåçûìÿííûé_ãðàäèåíò_422"/><linearGradient id="Áåçûìÿííûé_ãðàäèåíò_377-5" x1="3938.63" y1="158.36" x2="4029.8" y2="158.36" gradientTransform="matrix(-1, 0, 0, 1, 4343.98, 0)" xlink:href="#Áåçûìÿííûé_ãðàäèåíò_377"/><linearGradient id="Áåçûìÿííûé_ãðàäèåíò_388-5" x1="3938.63" y1="168.8" x2="4029.8" y2="168.8" gradientTransform="matrix(-1, 0, 0, 1, 4343.98, 0)" xlink:href="#Áåçûìÿííûé_ãðàäèåíò_102"/><linearGradient id="Áåçûìÿííûé_ãðàäèåíò_300-5" x1="2640.95" y1="-1133.03" x2="2683.96" y2="-1170.27" gradientTransform="matrix(-0.87, 0.5, 1, 0.58, 3818.98, -518.49)" xlink:href="#Áåçûìÿííûé_ãðàäèåíò_300"/><linearGradient id="Áåçûìÿííûé_ãðàäèåíò_302-2" x1="2646.56" y1="-1137.88" x2="2678.58" y2="-1165.61" xlink:href="#Áåçûìÿííûé_ãðàäèåíò_302"/><clipPath id="clip-path-2"><path class="cls-1" d="M363.07,159l17.15-9.9c1.22-.71,1.06-1.94-.34-2.75l-16.47-9.51a5.32,5.32,0,0,0-4.76-.2L341.5,146.5c-1.22.7-1.07,1.93.34,2.74l16.47,9.51A5.32,5.32,0,0,0,363.07,159Z"/></clipPath><linearGradient id="Áåçûìÿííûé_ãðàäèåíò_370-2" x1="3983.12" y1="159.42" x2="3983.12" y2="119.08" gradientTransform="matrix(-1, 0, 0, 1, 4343.98, 0)" xlink:href="#Áåçûìÿííûé_ãðàäèåíò_371"/><linearGradient id="Áåçûìÿííûé_ãðàäèåíò_422-4" x1="3861.92" y1="225.9" x2="3933.24" y2="225.9" xlink:href="#Áåçûìÿííûé_ãðàäèåíò_422"/><linearGradient id="Áåçûìÿííûé_ãðàäèåíò_377-6" x1="3894.13" y1="159.99" x2="3929.57" y2="231.33" gradientTransform="matrix(-1, 0, 0, 1, 4343.98, 0)" xlink:href="#Áåçûìÿííûé_ãðàäèåíò_377"/><linearGradient id="Áåçûìÿííûé_ãðàäèåíò_377-7" x1="3826.17" y1="160.87" x2="3951.83" y2="220.92" gradientTransform="matrix(-1, 0, 0, 1, 4343.98, 0)" xlink:href="#Áåçûìÿííûé_ãðàäèåíò_377"/><linearGradient id="Áåçûìÿííûé_ãðàäèåíò_388-6" x1="4081.31" y1="231.92" x2="4170.85" y2="231.92" gradientTransform="matrix(-1, 0, 0, 1, 4343.98, 0)" xlink:href="#Áåçûìÿííûé_ãðàäèåíò_102"/><linearGradient id="Áåçûìÿííûé_ãðàäèåíò_377-8" x1="4081.27" y1="177.89" x2="4173.09" y2="177.89" gradientTransform="matrix(-1, 0, 0, 1, 4343.98, 0)" xlink:href="#Áåçûìÿííûé_ãðàäèåíò_377"/><linearGradient id="Áåçûìÿííûé_ãðàäèåíò_388-7" x1="4081.27" y1="206.05" x2="4173.09" y2="206.05" gradientTransform="matrix(-1, 0, 0, 1, 4343.98, 0)" xlink:href="#Áåçûìÿííûé_ãðàäèåíò_102"/><linearGradient id="Áåçûìÿííûé_ãðàäèåíò_300-6" x1="2725.15" y1="-1202.8" x2="2768.46" y2="-1240.31" gradientTransform="matrix(-0.87, 0.5, 1, 0.58, 3818.98, -518.49)" xlink:href="#Áåçûìÿííûé_ãðàäèåíò_300"/><linearGradient id="Áåçûìÿííûé_ãðàäèåíò_302-3" x1="2730.8" y1="-1207.69" x2="2763.04" y2="-1235.62" xlink:href="#Áåçûìÿííûé_ãðàäèåíò_302"/><clipPath id="clip-path-3"><path class="cls-1" d="M220.12,160.84l17.28-10c1.22-.71,1.07-1.94-.35-2.76l-16.58-9.58a5.32,5.32,0,0,0-4.79-.2l-17.28,10c-1.23.71-1.07,1.94.35,2.76l16.58,9.58A5.32,5.32,0,0,0,220.12,160.84Z"/></clipPath><linearGradient id="Áåçûìÿííûé_ãðàäèåíò_370-3" x1="4126.09" y1="161.32" x2="4126.09" y2="63.07" gradientTransform="matrix(-1, 0, 0, 1, 4343.98, 0)" xlink:href="#Áåçûìÿííûé_ãðàäèåíò_371"/><linearGradient id="Áåçûìÿííûé_ãðàäèåíò_384" x1="4126.09" y1="160.24" x2="4126.09" y2="71.33" gradientTransform="matrix(-1, 0, 0, 1, 4343.98, 0)" gradientUnits="userSpaceOnUse"><stop offset="0.01" stop-color="#70e8fc"/><stop offset="0.15" stop-color="#5ab5cf"/><stop offset="0.3" stop-color="#4584a3"/><stop offset="0.46" stop-color="#335a7e"/><stop offset="0.6" stop-color="#253a62"/><stop offset="0.75" stop-color="#1b244d"/><stop offset="0.88" stop-color="#151641"/><stop offset="1" stop-color="#13113d"/></linearGradient><linearGradient id="Áåçûìÿííûé_ãðàäèåíò_388-8" x1="4025.78" y1="266.41" x2="4115.32" y2="266.41" gradientTransform="matrix(-1, 0, 0, 1, 4343.98, 0)" xlink:href="#Áåçûìÿííûé_ãðàäèåíò_102"/><linearGradient id="Áåçûìÿííûé_ãðàäèåíò_377-9" x1="4025.74" y1="212.38" x2="4117.56" y2="212.38" gradientTransform="matrix(-1, 0, 0, 1, 4343.98, 0)" xlink:href="#Áåçûìÿííûé_ãðàäèåíò_377"/><linearGradient id="Áåçûìÿííûé_ãðàäèåíò_388-9" x1="4025.74" y1="240.54" x2="4117.56" y2="240.54" gradientTransform="matrix(-1, 0, 0, 1, 4343.98, 0)" xlink:href="#Áåçûìÿííûé_ãðàäèåíò_102"/><linearGradient id="Áåçûìÿííûé_ãðàäèåíò_300-7" x1="2727.58" y1="-1145.17" x2="2770.89" y2="-1182.68" gradientTransform="matrix(-0.87, 0.5, 1, 0.58, 3818.98, -518.49)" xlink:href="#Áåçûìÿííûé_ãðàäèåíò_300"/><linearGradient id="Áåçûìÿííûé_ãðàäèåíò_302-4" x1="2733.23" y1="-1150.06" x2="2765.47" y2="-1177.99" xlink:href="#Áåçûìÿííûé_ãðàäèåíò_302"/><clipPath id="clip-path-4"><path class="cls-1" d="M275.65,195.33l17.27-10c1.23-.7,1.08-1.94-.34-2.76L276,173a5.35,5.35,0,0,0-4.79-.2l-17.27,10c-1.23.71-1.08,1.94.34,2.76l16.59,9.58A5.32,5.32,0,0,0,275.65,195.33Z"/></clipPath><linearGradient id="Áåçûìÿííûé_ãðàäèåíò_370-4" x1="4070.57" y1="195.81" x2="4070.57" y2="97.57" gradientTransform="matrix(-1, 0, 0, 1, 4343.98, 0)" xlink:href="#Áåçûìÿííûé_ãðàäèåíò_371"/><linearGradient id="Áåçûìÿííûé_ãðàäèåíò_384-2" x1="4070.57" y1="194.73" x2="4070.57" y2="105.82" xlink:href="#Áåçûìÿííûé_ãðàäèåíò_384"/><linearGradient id="Áåçûìÿííûé_ãðàäèåíò_388-10" x1="4135.85" y1="266.05" x2="4225.39" y2="266.05" gradientTransform="matrix(-1, 0, 0, 1, 4343.98, 0)" xlink:href="#Áåçûìÿííûé_ãðàäèåíò_102"/><linearGradient id="Áåçûìÿííûé_ãðàäèåíò_377-10" x1="4135.81" y1="212.02" x2="4227.64" y2="212.02" gradientTransform="matrix(-1, 0, 0, 1, 4343.98, 0)" xlink:href="#Áåçûìÿííûé_ãðàäèåíò_377"/><linearGradient id="Áåçûìÿííûé_ãðàäèåíò_388-11" x1="4135.81" y1="240.18" x2="4227.64" y2="240.18" gradientTransform="matrix(-1, 0, 0, 1, 4343.98, 0)" xlink:href="#Áåçûìÿííûé_ãðàäèåíò_102"/><linearGradient id="Áåçûìÿííûé_ãðàäèåíò_300-8" x1="2790.77" y1="-1200.51" x2="2834.09" y2="-1238.02" gradientTransform="matrix(-0.87, 0.5, 1, 0.58, 3818.98, -518.49)" xlink:href="#Áåçûìÿííûé_ãðàäèåíò_300"/><linearGradient id="Áåçûìÿííûé_ãðàäèåíò_302-5" x1="2796.42" y1="-1205.41" x2="2828.67" y2="-1233.33" xlink:href="#Áåçûìÿííûé_ãðàäèåíò_302"/><clipPath id="clip-path-5"><path class="cls-1" d="M165.58,195l17.27-10c1.23-.71,1.07-1.95-.34-2.77l-16.59-9.57a5.32,5.32,0,0,0-4.79-.2l-17.27,10c-1.23.71-1.08,1.95.34,2.77l16.58,9.57A5.34,5.34,0,0,0,165.58,195Z"/></clipPath><linearGradient id="Áåçûìÿííûé_ãðàäèåíò_370-5" x1="4169.24" y1="180.98" x2="4169.24" y2="82.74" gradientTransform="matrix(-1, 0.01, 0.01, 1, 4331.59, -16.8)" xlink:href="#Áåçûìÿííûé_ãðàäèåíò_371"/><linearGradient id="Áåçûìÿííûé_ãðàäèåíò_384-3" x1="4169.24" y1="179.91" x2="4169.24" y2="91" gradientTransform="matrix(-1, 0.01, 0.01, 1, 4331.59, -16.8)" xlink:href="#Áåçûìÿííûé_ãðàäèåíò_384"/><linearGradient id="Áåçûìÿííûé_ãðàäèåíò_388-12" x1="4080.33" y1="300.54" x2="4169.87" y2="300.54" gradientTransform="matrix(-1, 0, 0, 1, 4343.98, 0)" xlink:href="#Áåçûìÿííûé_ãðàäèåíò_102"/><linearGradient id="Áåçûìÿííûé_ãðàäèåíò_377-11" x1="4080.29" y1="246.52" x2="4172.11" y2="246.52" gradientTransform="matrix(-1, 0, 0, 1, 4343.98, 0)" xlink:href="#Áåçûìÿííûé_ãðàäèåíò_377"/><linearGradient id="Áåçûìÿííûé_ãðàäèåíò_388-13" x1="4080.29" y1="274.67" x2="4172.11" y2="274.67" gradientTransform="matrix(-1, 0, 0, 1, 4343.98, 0)" xlink:href="#Áåçûìÿííûé_ãðàäèåíò_102"/><linearGradient id="Áåçûìÿííûé_ãðàäèåíò_300-9" x1="2793.2" y1="-1142.88" x2="2836.52" y2="-1180.39" gradientTransform="matrix(-0.87, 0.5, 1, 0.58, 3818.98, -518.49)" xlink:href="#Áåçûìÿííûé_ãðàäèåíò_300"/><linearGradient id="Áåçûìÿííûé_ãðàäèåíò_302-6" x1="2798.85" y1="-1147.78" x2="2831.1" y2="-1175.7" xlink:href="#Áåçûìÿííûé_ãðàäèåíò_302"/><clipPath id="clip-path-6"><path class="cls-1" d="M221.1,229.46l17.28-10c1.22-.71,1.07-2-.35-2.77l-16.58-9.57a5.32,5.32,0,0,0-4.79-.2l-17.28,10c-1.23.71-1.07,2,.35,2.77l16.58,9.57A5.32,5.32,0,0,0,221.1,229.46Z"/></clipPath><linearGradient id="Áåçûìÿííûé_ãðàäèåíò_370-6" x1="4125.11" y1="229.94" x2="4125.11" y2="131.7" gradientTransform="matrix(-1, 0, 0, 1, 4343.98, 0)" xlink:href="#Áåçûìÿííûé_ãðàäèåíò_371"/><linearGradient id="Áåçûìÿííûé_ãðàäèåíò_384-4" x1="4125.11" y1="228.87" x2="4125.11" y2="139.96" xlink:href="#Áåçûìÿííûé_ãðàäèåíò_384"/></defs><g class="cls-2"><g id="Ñëîé_1" data-name="Ñëîé 1"><g class="cls-3"><path class="cls-4" d="M324.08,181.67a4.79,4.79,0,0,1-2.36-.55l-32.31-18.65a1.9,1.9,0,0,1-1.07-1.63,2.45,2.45,0,0,1,1.43-2l6.67-3.86a5.89,5.89,0,0,1,5.36-.2l32.31,18.65a1.91,1.91,0,0,1,1.08,1.62,2.47,2.47,0,0,1-1.43,2l-6.68,3.86A6.15,6.15,0,0,1,324.08,181.67Zm-24.63-26.51a5.31,5.31,0,0,0-2.55.62l-6.67,3.86c-.61.35-1,.8-1,1.2a1.06,1.06,0,0,0,.62.83l32.31,18.66a5,5,0,0,0,4.44-.21l6.68-3.85c.6-.35,1-.8,1-1.21a1.07,1.07,0,0,0-.62-.83l-32.31-18.65A3.91,3.91,0,0,0,299.45,155.16Z"/><path class="cls-4" d="M314.6,228.21a4.86,4.86,0,0,1-2.37-.56l-16.4-9.47a1.89,1.89,0,0,1-1.08-1.63,2.45,2.45,0,0,1,1.43-2l4.14-2.39a5.84,5.84,0,0,1,5.35-.21l16.41,9.48a1.89,1.89,0,0,1,1.08,1.62,2.46,2.46,0,0,1-1.43,2l-4.14,2.39A6.15,6.15,0,0,1,314.6,228.21Zm-11.28-15.88a5.28,5.28,0,0,0-2.54.63l-4.14,2.39c-.61.35-1,.8-1,1.2a1,1,0,0,0,.61.83l16.41,9.48a5,5,0,0,0,4.44-.21l4.14-2.38c.61-.36,1-.81,1-1.21a1.06,1.06,0,0,0-.62-.83l-16.4-9.47A3.87,3.87,0,0,0,303.32,212.33Z"/><path class="cls-4" d="M296.44,244.74a5.36,5.36,0,0,1-2.67-.65l-44.08-25.45a1.93,1.93,0,0,1,0-3.61l51.09-29.5a5.81,5.81,0,0,1,5.35,0l22.36,12.91-.46.79-22.36-12.91a5,5,0,0,0-4.43,0l-51.09,29.5a1,1,0,0,0,0,2l44.08,25.45a5,5,0,0,0,4.43,0l88.65-51.19a1.28,1.28,0,0,0,.78-1,1.3,1.3,0,0,0-.78-1l-84.48-48.77a4.91,4.91,0,0,0-4.42,0l-52.52,30.32a1.3,1.3,0,0,0-.78,1,1.32,1.32,0,0,0,.78,1l16,9.23a1.94,1.94,0,0,1,0,3.62l-31.26,18a5.79,5.79,0,0,1-5.34,0l-35.07-20.24A2.14,2.14,0,0,1,189,182.5a2.17,2.17,0,0,1,1.24-1.81L345.13,91.26a5.87,5.87,0,0,1,5.35,0l86.8,50.11a2.17,2.17,0,0,1,1.24,1.81,2.14,2.14,0,0,1-1.24,1.81l-21.65,12.5-.46-.79,21.65-12.5a1,1,0,0,0,0-2L350,92.05a5,5,0,0,0-4.43,0L190.68,181.49a1.05,1.05,0,0,0,0,2l35.06,20.24a5,5,0,0,0,4.43,0l31.26-18a1.05,1.05,0,0,0,0-2l-16-9.23a2.17,2.17,0,0,1-1.24-1.81,2.14,2.14,0,0,1,1.24-1.81L298,140.52a5.85,5.85,0,0,1,5.34,0l84.48,48.77A2.17,2.17,0,0,1,389,191.1a2.14,2.14,0,0,1-1.24,1.81l-88.66,51.18A5.33,5.33,0,0,1,296.44,244.74Z"/><path class="cls-4" d="M381.23,157a5.5,5.5,0,0,1-2.68-.64L328,127.2a1.93,1.93,0,0,1,0-3.61l7.16-4.14a5.85,5.85,0,0,1,5.34,0l53.7,31-10.29,6A5.46,5.46,0,0,1,381.23,157Zm-52.78-30.63L379,155.6a5,5,0,0,0,4.43,0l8.92-5.15L340,120.25a4.94,4.94,0,0,0-4.43,0l-7.16,4.13a1.05,1.05,0,0,0,0,2Z"/><path class="cls-4" d="M350.82,276.14a5.47,5.47,0,0,1-2.67-.65l-14-8.09a1.94,1.94,0,0,1,0-3.62L352.87,253a5.79,5.79,0,0,1,5.34,0l6.69,3.86a5,5,0,0,0,4.43,0L454,208a1,1,0,0,0,0-2l-5.75-3.32a5,5,0,0,0-4.42,0l-75.43,43.55a5.85,5.85,0,0,1-5.34,0l-15-8.64a5,5,0,0,0-4.43,0l-30.39,17.55-.46-.8,30.39-17.54a5.81,5.81,0,0,1,5.35,0l15,8.63a5,5,0,0,0,4.42,0l75.43-43.55a5.85,5.85,0,0,1,5.34,0l5.75,3.32a1.94,1.94,0,0,1,0,3.62l-84.64,48.86a5.81,5.81,0,0,1-5.35,0l-6.68-3.86a5,5,0,0,0-4.43,0l-18.74,10.82a1,1,0,0,0,0,2l14,8.09a4.94,4.94,0,0,0,4.43,0l119.48-69a1,1,0,0,0,0-2L403.84,164l.45-.8L473,202.89a1.94,1.94,0,0,1,0,3.62l-119.48,69A5.47,5.47,0,0,1,350.82,276.14Z"/><path class="cls-4" d="M368.18,236.06a4.81,4.81,0,0,1-2.36-.55l-13.9-8a1.89,1.89,0,0,1-1.08-1.63,2.47,2.47,0,0,1,1.43-2L411,189.93a5.89,5.89,0,0,1,5.36-.2l13.9,8a1.89,1.89,0,0,1,1.08,1.63,2.47,2.47,0,0,1-1.43,2L371.18,235.3A6.16,6.16,0,0,1,368.18,236.06Zm45.86-46a5.32,5.32,0,0,0-2.55.63l-58.76,33.93c-.61.35-1,.8-1,1.2a1,1,0,0,0,.61.83l13.91,8a5,5,0,0,0,4.44-.2l58.76-33.93c.61-.35,1-.8,1-1.2a1,1,0,0,0-.62-.83l-13.9-8A3.85,3.85,0,0,0,414,190.09Z"/><path class="cls-4" d="M481.13,199.45a5.47,5.47,0,0,1-2.67-.65L424.6,167.71a2.17,2.17,0,0,1-1.24-1.81,2.14,2.14,0,0,1,1.24-1.81l9.23-5.33a5.85,5.85,0,0,1,5.34,0l37.72,21.78-.46.79-37.72-21.77a5,5,0,0,0-4.42,0l-9.23,5.33a1.28,1.28,0,0,0-.78,1,1.3,1.3,0,0,0,.78,1L478.92,198a5,5,0,0,0,4.43,0l23.34-13.48a1.05,1.05,0,0,0,0-2l-58-33.46.46-.79,57.95,33.46a2.13,2.13,0,0,1,1.25,1.81,2.16,2.16,0,0,1-1.25,1.81L483.8,198.8A5.47,5.47,0,0,1,481.13,199.45Z"/><path class="cls-4" d="M272.67,221.48a4.85,4.85,0,0,1-2.37-.55l-4.84-2.79a1.91,1.91,0,0,1-1.07-1.63,2.47,2.47,0,0,1,1.42-2l4.14-2.39a5.89,5.89,0,0,1,5.36-.2l4.84,2.8a1.88,1.88,0,0,1,1.08,1.62,2.46,2.46,0,0,1-1.43,2l-4.14,2.39A6.12,6.12,0,0,1,272.67,221.48Zm.29-9.19a5.21,5.21,0,0,0-2.55.63l-4.14,2.39c-.6.35-1,.8-1,1.2a1.06,1.06,0,0,0,.62.83l4.84,2.8a5,5,0,0,0,4.44-.21l4.14-2.39c.61-.35,1-.8,1-1.2a1,1,0,0,0-.62-.83l-4.84-2.8A3.91,3.91,0,0,0,273,212.29Z"/><path class="cls-4" d="M287.81,212.74a4.79,4.79,0,0,1-2.36-.55l-4.84-2.8a1.89,1.89,0,0,1-1.08-1.62,2.45,2.45,0,0,1,1.43-2l4.14-2.39a5.87,5.87,0,0,1,5.35-.2L295.3,206a1.9,1.9,0,0,1,1.07,1.63,2.48,2.48,0,0,1-1.42,2L290.81,212A6.05,6.05,0,0,1,287.81,212.74Zm.29-9.19a5.28,5.28,0,0,0-2.54.62l-4.14,2.39c-.61.35-1,.8-1,1.21a1,1,0,0,0,.62.83l4.84,2.79a5,5,0,0,0,4.44-.2l4.14-2.39c.6-.35,1-.8,1-1.2a1.06,1.06,0,0,0-.62-.83L290,204A4,4,0,0,0,288.1,203.55Z"/><path class="cls-4" d="M303,204a4.86,4.86,0,0,1-2.37-.56l-4.84-2.79a1.91,1.91,0,0,1-1.08-1.63,2.47,2.47,0,0,1,1.43-2l4.14-2.38a5.86,5.86,0,0,1,5.36-.21l4.84,2.8a1.89,1.89,0,0,1,1.08,1.62,2.45,2.45,0,0,1-1.43,2L306,203.24A6.15,6.15,0,0,1,303,204Zm.29-9.2a5.32,5.32,0,0,0-2.55.63l-4.14,2.39c-.61.35-1,.8-1,1.2a1.06,1.06,0,0,0,.62.83l4.84,2.8a5,5,0,0,0,4.44-.2l4.14-2.39c.61-.35,1-.8,1-1.21A1.07,1.07,0,0,0,310,198l-4.84-2.79A3.85,3.85,0,0,0,303.25,194.8Z"/><path class="cls-4" d="M287.89,230.27a4.85,4.85,0,0,1-2.37-.55l-4.84-2.8a1.9,1.9,0,0,1-1.07-1.62,2.45,2.45,0,0,1,1.42-2l4.14-2.39a5.89,5.89,0,0,1,5.36-.2l4.84,2.79a1.89,1.89,0,0,1,1.08,1.63,2.47,2.47,0,0,1-1.43,2l-4.14,2.39A6.12,6.12,0,0,1,287.89,230.27Zm.29-9.19a5.31,5.31,0,0,0-2.55.62l-4.14,2.39c-.6.35-1,.8-1,1.21a1.06,1.06,0,0,0,.62.83l4.84,2.79a5,5,0,0,0,4.44-.2l4.14-2.39c.61-.35,1-.8,1-1.2a1,1,0,0,0-.62-.83l-4.84-2.8A3.91,3.91,0,0,0,288.18,221.08Z"/><path class="cls-4" d="M318.17,212.78a4.84,4.84,0,0,1-2.36-.55L311,209.44a1.93,1.93,0,0,1-1.08-1.63,2.46,2.46,0,0,1,1.43-2l4.14-2.39a5.89,5.89,0,0,1,5.36-.2l4.84,2.8a1.88,1.88,0,0,1,1.08,1.62,2.46,2.46,0,0,1-1.43,2L321.17,212A6.15,6.15,0,0,1,318.17,212.78Zm.3-9.19a5.21,5.21,0,0,0-2.55.63l-4.14,2.39c-.61.35-1,.8-1,1.2a1.06,1.06,0,0,0,.62.83l4.84,2.8a5,5,0,0,0,4.44-.21l4.14-2.39c.61-.35,1-.8,1-1.2a1.06,1.06,0,0,0-.62-.83L320.36,204A3.83,3.83,0,0,0,318.47,203.59Z"/><path class="cls-4" d="M190.63,273.44a4.79,4.79,0,0,1-2.36-.56l-7.38-4.26a1.89,1.89,0,0,1-1.08-1.63,2.45,2.45,0,0,1,1.43-2l31.6-18.25a5.89,5.89,0,0,1,5.36-.2l7.38,4.26a1.9,1.9,0,0,1,1.07,1.63,2.45,2.45,0,0,1-1.42,2l-31.61,18.25A6.1,6.1,0,0,1,190.63,273.44Zm-1.9-1.35a5,5,0,0,0,4.44-.21l31.6-18.24c.6-.35,1-.8,1-1.2a1.07,1.07,0,0,0-.62-.84l-7.38-4.26a5,5,0,0,0-4.44.21l-31.6,18.24c-.61.35-1,.8-1,1.2a1.06,1.06,0,0,0,.61.84Z"/><path class="cls-4" d="M107.49,266.49a4.81,4.81,0,0,1-2.36-.55l-4.84-2.8a1.91,1.91,0,0,1-1.08-1.62,2.45,2.45,0,0,1,1.43-2l15.7-9.07a5.89,5.89,0,0,1,5.36-.2l4.84,2.79a1.91,1.91,0,0,1,1.08,1.63,2.46,2.46,0,0,1-1.43,2l-15.7,9.06A6.16,6.16,0,0,1,107.49,266.49Zm11.86-15.87a5.21,5.21,0,0,0-2.55.63l-15.7,9.06c-.61.35-1,.8-1,1.21a1.07,1.07,0,0,0,.62.83l4.84,2.79a5,5,0,0,0,4.44-.2l15.7-9.07c.61-.35,1-.8,1-1.2a1,1,0,0,0-.61-.83l-4.85-2.8A3.91,3.91,0,0,0,119.35,250.62Z"/><path class="cls-4" d="M246.14,333.1a5.47,5.47,0,0,1-2.67-.65L221.82,320l.45-.79,21.66,12.5a5,5,0,0,0,4.42,0l86.8-50.12c.5-.29.79-.65.79-1a1.3,1.3,0,0,0-.79-1L180.24,190.08a4.94,4.94,0,0,0-4.43,0l-35.06,20.24a1,1,0,0,0,0,2l31.26,18a5,5,0,0,0,4.42,0l16-9.23a5.79,5.79,0,0,1,5.34,0l52.51,30.32a1.93,1.93,0,0,1,0,3.61l-84.47,48.77a5.79,5.79,0,0,1-5.34,0L71.81,252.68a1.94,1.94,0,0,1,0-3.62l44.08-25.45a5.87,5.87,0,0,1,5.35,0l51.09,29.5a1.94,1.94,0,0,1,0,3.62L150,269.64l-.46-.8,22.36-12.91a1,1,0,0,0,0-2l-51.1-29.5a4.94,4.94,0,0,0-4.43,0L72.27,249.86a1,1,0,0,0,0,2l88.66,51.19a5,5,0,0,0,4.42,0l84.48-48.77a1.05,1.05,0,0,0,0-2L197.31,222a5,5,0,0,0-4.43,0l-16,9.23a5.79,5.79,0,0,1-5.34,0l-31.26-18a1.94,1.94,0,0,1,0-3.62l35.06-20.24a5.87,5.87,0,0,1,5.35,0l154.91,89.44a2.14,2.14,0,0,1,1.24,1.81,2.17,2.17,0,0,1-1.24,1.81l-86.8,50.11A5.47,5.47,0,0,1,246.14,333.1Z"/><path class="cls-4" d="M233.54,307.31l-9.83-5.68a1.94,1.94,0,0,1,0-3.62l50.56-29.19a5.87,5.87,0,0,1,5.35,0l7.16,4.14a1.93,1.93,0,0,1,0,3.61Zm41.19-37.69-50.56,29.19a1.05,1.05,0,0,0,0,2l9.37,5.41.24-.14,52.54-30.33a1.05,1.05,0,0,0,0-2l-7.16-4.13a4.94,4.94,0,0,0-4.43,0Z"/><path class="cls-4" d="M139.59,353.7a5.47,5.47,0,0,1-2.67-.65l-119.48-69a2.14,2.14,0,0,1-1.24-1.81,2.17,2.17,0,0,1,1.24-1.81l14-8.09a5.85,5.85,0,0,1,5.34,0l18.74,10.82a1.94,1.94,0,0,1,0,3.62l-6.69,3.86a1.05,1.05,0,0,0,0,2l84.64,48.86a5,5,0,0,0,4.43,0l5.74-3.31a1.05,1.05,0,0,0,0-2L68.22,292.66a1.93,1.93,0,0,1,0-3.61l15-8.64a1.3,1.3,0,0,0,.78-1,1.28,1.28,0,0,0-.78-1L52.79,260.84l.46-.8,30.39,17.55a2.14,2.14,0,0,1,1.24,1.81,2.17,2.17,0,0,1-1.24,1.81l-15,8.63a1.05,1.05,0,0,0,0,2l75.43,43.54a2.17,2.17,0,0,1,1.24,1.81,2.14,2.14,0,0,1-1.24,1.81l-5.74,3.32a5.87,5.87,0,0,1-5.35,0L48.38,293.48a2.14,2.14,0,0,1-1.24-1.81,2.17,2.17,0,0,1,1.24-1.81L55.07,286a1,1,0,0,0,0-2L36.33,273.16a5,5,0,0,0-4.42,0l-14,8.09c-.5.29-.79.65-.79,1a1.3,1.3,0,0,0,.79,1l119.48,69a5,5,0,0,0,4.43,0l68.67-39.65.46.79-68.68,39.65A5.44,5.44,0,0,1,139.59,353.7Z"/><path class="cls-4" d="M148.52,329a4.86,4.86,0,0,1-2.37-.56L86.69,294.08a1.89,1.89,0,0,1-1.08-1.63,2.45,2.45,0,0,1,1.43-2l13.2-7.62a5.86,5.86,0,0,1,5.36-.21L165.07,317a1.89,1.89,0,0,1,1.07,1.62,2.46,2.46,0,0,1-1.43,2l-13.2,7.62A6.15,6.15,0,0,1,148.52,329Zm-45.27-46a5.32,5.32,0,0,0-2.55.63l-13.2,7.62c-.61.35-1,.8-1,1.2a1.05,1.05,0,0,0,.62.84l59.46,34.33a5,5,0,0,0,4.44-.2l13.2-7.63c.61-.35,1-.8,1-1.2a1.06,1.06,0,0,0-.62-.83l-59.47-34.33A3.85,3.85,0,0,0,103.25,283Z"/><path class="cls-4" d="M176.28,373.43a5.36,5.36,0,0,1-2.67-.65l-23.34-13.47a1.94,1.94,0,0,1,0-3.62l53.85-31.09a5.81,5.81,0,0,1,5.35,0l9.22,5.33a1.93,1.93,0,0,1,0,3.61L181,355.32l-.46-.8,37.71-21.77a1,1,0,0,0,0-2L209,325.39a5,5,0,0,0-4.43,0l-53.86,31.1a1,1,0,0,0,0,2L174.07,372a5,5,0,0,0,4.42,0l58-33.46.45.8-58,33.45A5.36,5.36,0,0,1,176.28,373.43Z"/><path class="cls-4" d="M119.13,242.28a4.81,4.81,0,0,1-2.36-.55l-4.84-2.8a1.9,1.9,0,0,1-1.08-1.62,2.46,2.46,0,0,1,1.43-2l4.14-2.39a5.89,5.89,0,0,1,5.36-.2l4.84,2.79a1.93,1.93,0,0,1,1.08,1.63,2.46,2.46,0,0,1-1.43,2l-4.14,2.39A6.15,6.15,0,0,1,119.13,242.28Zm-1.9-1.34a5.06,5.06,0,0,0,4.44-.21l4.14-2.39c.61-.35,1-.8,1-1.2a1.06,1.06,0,0,0-.62-.83l-4.84-2.8a5,5,0,0,0-4.44.21l-4.14,2.39c-.61.35-1,.8-1,1.2a1.06,1.06,0,0,0,.62.83Z"/><path class="cls-4" d="M134.28,251a4.79,4.79,0,0,1-2.36-.56l-4.85-2.79a1.9,1.9,0,0,1-1.07-1.63,2.47,2.47,0,0,1,1.43-2l4.13-2.38a5.86,5.86,0,0,1,5.36-.21l4.84,2.8a1.89,1.89,0,0,1,1.08,1.62,2.45,2.45,0,0,1-1.43,2l-4.14,2.39A6.1,6.1,0,0,1,134.28,251Zm.29-9.2a5.32,5.32,0,0,0-2.55.63l-4.14,2.39c-.6.35-1,.8-1,1.2a1.06,1.06,0,0,0,.62.83l4.84,2.8a5,5,0,0,0,4.45-.2l4.13-2.39c.61-.35,1-.8,1-1.21a1,1,0,0,0-.61-.83l-4.85-2.79A3.8,3.8,0,0,0,134.57,241.83Z"/><path class="cls-4" d="M149.42,259.77a4.79,4.79,0,0,1-2.36-.55l-4.84-2.8a1.89,1.89,0,0,1-1.08-1.62,2.45,2.45,0,0,1,1.43-2l4.14-2.39a5.83,5.83,0,0,1,5.36-.2l4.84,2.79a1.91,1.91,0,0,1,1.08,1.63,2.45,2.45,0,0,1-1.43,2L152.42,259A6.16,6.16,0,0,1,149.42,259.77Zm-1.9-1.35a5,5,0,0,0,4.44-.2l4.14-2.39c.61-.35,1-.8,1-1.2a1,1,0,0,0-.62-.83l-4.84-2.8a5,5,0,0,0-4.44.2L143,253.59c-.61.35-1,.8-1,1.21a1.07,1.07,0,0,0,.62.83Z"/><path class="cls-4" d="M103.91,251.07a4.84,4.84,0,0,1-2.36-.55l-4.84-2.8a1.91,1.91,0,0,1-1.08-1.62,2.45,2.45,0,0,1,1.43-2l4.14-2.39a5.89,5.89,0,0,1,5.36-.2l4.84,2.79a1.91,1.91,0,0,1,1.08,1.63,2.45,2.45,0,0,1-1.43,2l-4.14,2.39A6.16,6.16,0,0,1,103.91,251.07Zm.3-9.2a5.32,5.32,0,0,0-2.55.63l-4.14,2.39c-.61.35-1,.8-1,1.21a1.07,1.07,0,0,0,.62.83l4.84,2.79a5,5,0,0,0,4.44-.2l4.14-2.39c.61-.35,1-.8,1-1.2a1,1,0,0,0-.62-.83l-4.84-2.8A3.85,3.85,0,0,0,104.21,241.87Z"/><path class="cls-4" d="M134.2,268.56a4.79,4.79,0,0,1-2.36-.56L127,265.21a1.89,1.89,0,0,1-1.08-1.63,2.45,2.45,0,0,1,1.43-2l4.14-2.39a5.86,5.86,0,0,1,5.36-.21l4.84,2.8a1.91,1.91,0,0,1,1.08,1.62,2.45,2.45,0,0,1-1.43,2l-4.14,2.39A6.16,6.16,0,0,1,134.2,268.56Zm-1.9-1.35a5,5,0,0,0,4.44-.2l4.14-2.39c.61-.35,1-.8,1-1.21a1.07,1.07,0,0,0-.62-.83l-4.84-2.79a5,5,0,0,0-4.44.2l-4.14,2.39c-.61.35-1,.8-1,1.2a1,1,0,0,0,.62.83Z"/></g><ellipse class="cls-5" cx="153.94" cy="293.01" rx="114.05" ry="65.85"/><ellipse class="cls-6" cx="200.88" cy="386.62" rx="53.48" ry="30.88"/><ellipse class="cls-7" cx="247.61" cy="385.38" rx="53.48" ry="30.88"/><ellipse class="cls-8" cx="324.27" cy="246.73" rx="114.05" ry="65.85"/><path class="cls-9" d="M341.52,297.46a12.23,12.23,0,0,1-6-1.42l-23.47-13.55.49-.85L336,295.19a12.1,12.1,0,0,0,11,0l59.78-34.51a3,3,0,0,0,0-5.76L315.14,202c-1.69-1-2.62-2.3-2.62-3.73s.93-2.75,2.62-3.73L339,180.81l.49.84L315.63,195.4a3,3,0,0,0,0,5.76l91.63,52.91c1.69,1,2.62,2.3,2.62,3.73s-.93,2.75-2.62,3.73L347.49,296A12.23,12.23,0,0,1,341.52,297.46Z"/><path class="cls-9" d="M207.94,376.32l-79.69-46c-2-1.13-3-2.66-3-4.31s1.08-3.18,3-4.31l33.28-19.21.49.85-33.28,19.21c-1.64.95-2.54,2.18-2.54,3.46s.9,2.52,2.54,3.47l79.69,46Z"/><path class="cls-9" d="M81.81,301.27a13.44,13.44,0,0,1-6.59-1.58l-42-24.23c-1.86-1.07-2.88-2.52-2.88-4.09s1-3,2.88-4.09L180,182.56c1.54-.89,2.38-2,2.38-3.24s-.84-2.36-2.38-3.24l-23.67-13.67.49-.85,23.67,13.67c1.85,1.07,2.87,2.52,2.87,4.09s-1,3-2.87,4.09L33.73,268.13c-1.53.89-2.38,2-2.38,3.24s.85,2.36,2.38,3.24l42,24.24a13.54,13.54,0,0,0,12.21,0l33.66-19.44.49.85L88.4,299.69A13.44,13.44,0,0,1,81.81,301.27Z"/><path class="cls-9" d="M219.46,333.83a18.5,18.5,0,0,1-9-2.24L107.61,272.2c-2.56-1.48-4-3.47-4-5.47a5.07,5.07,0,0,1,2.92-4.3l105.09-60.67c4.09-2.37,11.24-2.08,15.94.64l102.86,59.39c2.56,1.47,4,3.47,4,5.47a5.08,5.08,0,0,1-2.92,4.3L226.42,332.23A14.23,14.23,0,0,1,219.46,333.83Zm-.92-132.71a13.27,13.27,0,0,0-6.47,1.48L107,263.27a4.17,4.17,0,0,0-2.43,3.46c0,1.64,1.29,3.32,3.54,4.62L211,330.74c4.43,2.56,11.15,2.85,15,.64L331,270.71a4.18,4.18,0,0,0,2.43-3.45c0-1.64-1.29-3.33-3.54-4.63L227,203.24A17.51,17.51,0,0,0,218.54,201.12Z"/><path class="cls-10" d="M408.45,292.64a7.59,7.59,0,0,1-3.82-1l-25-14.49.37-.65L405,291a6.89,6.89,0,0,0,6.85,0l71.09-40.63a1,1,0,0,0,0-1.81l-26.89-16.21.39-.64,26.89,16.21a1.79,1.79,0,0,1,0,3.1l-71.09,40.63A7.57,7.57,0,0,1,408.45,292.64Z"/><g class="cls-3"><path class="cls-9" d="M341.52,299.43a14.22,14.22,0,0,1-6.95-1.69L311.1,284.19a2.45,2.45,0,0,1,2.45-4.25L337,293.49a10.23,10.23,0,0,0,9,0L405.79,259c.91-.52,1.15-1,1.15-1.18s-.24-.66-1.15-1.19l-91.63-52.9a5.9,5.9,0,0,1,0-10.86L338,179.11a2.45,2.45,0,0,1,2.45,4.24L316.61,197.1c-.91.52-1.15,1-1.15,1.18s.24.66,1.15,1.19l91.63,52.9a5.9,5.9,0,0,1,0,10.86l-59.77,34.51A14.22,14.22,0,0,1,341.52,299.43Z"/><path class="cls-9" d="M208.19,378.35A2.5,2.5,0,0,1,207,378l-79.69-46c-2.55-1.47-4-3.66-4-6s1.46-4.53,4-6l33.28-19.21A2.45,2.45,0,0,1,163,305l-33.28,19.21c-1,.55-1.56,1.23-1.56,1.76s.6,1.21,1.56,1.77l79.69,46a2.45,2.45,0,0,1-1.22,4.57Z"/><path class="cls-9" d="M81.81,303.23a15.34,15.34,0,0,1-7.57-1.84l-42-24.23c-2.45-1.42-3.86-3.52-3.86-5.79s1.41-4.37,3.85-5.79L179,180.86c1-.6,1.4-1.2,1.4-1.54s-.37-.95-1.4-1.55l-23.67-13.66a2.45,2.45,0,1,1,2.45-4.24l23.67,13.66c2.45,1.42,3.85,3.53,3.85,5.79s-1.4,4.37-3.85,5.79L34.71,269.83c-1,.6-1.4,1.2-1.4,1.54s.37.95,1.41,1.55l42,24.23a11.72,11.72,0,0,0,10.24,0l33.66-19.44A2.45,2.45,0,0,1,123,282L89.38,301.39A15.37,15.37,0,0,1,81.81,303.23Z"/><path class="cls-9" d="M219.45,335.79a20.3,20.3,0,0,1-10-2.51L106.63,273.9c-3.18-1.84-5-4.45-5-7.17,0-2.42,1.38-4.55,3.9-6L210.6,200.06c4.72-2.72,12.58-2.44,17.91.64l102.87,59.39c3.18,1.83,5,4.45,5,7.17,0,2.41-1.39,4.54-3.9,6L227.4,333.93h0A16.16,16.16,0,0,1,219.45,335.79Zm-.93-132.71a11.28,11.28,0,0,0-5.47,1.22L108,265c-.54.32-1.45,1-1.45,1.76s.67,1.83,2.56,2.92L211.94,329c3.83,2.21,9.79,2.5,13,.64h0L330,269c.55-.31,1.46-1,1.46-1.75s-.68-1.84-2.56-2.93L226.06,204.94A15.57,15.57,0,0,0,218.52,203.08Z"/></g><path class="cls-11" d="M323.7,288.63a2.19,2.19,0,1,0-3,.82A2.2,2.2,0,0,0,323.7,288.63Z"/><path class="cls-11" d="M335.08,295.2a2.19,2.19,0,1,0-3,.82A2.19,2.19,0,0,0,335.08,295.2Z"/><path class="cls-11" d="M347.6,295.41a2.61,2.61,0,0,0-1.3-1.06,1.93,1.93,0,0,0-1.39-.1,2.44,2.44,0,0,0-1.42,2.59,2.07,2.07,0,0,0,2.84,1.58,2.3,2.3,0,0,0,1.45-1.33A2,2,0,0,0,347.6,295.41Z"/><path class="cls-11" d="M359,288.84a2.19,2.19,0,1,0-.8,3A2.2,2.2,0,0,0,359,288.84Z"/><path class="cls-11" d="M370.35,282.27a2.19,2.19,0,1,0-.79,3A2.2,2.2,0,0,0,370.35,282.27Z"/><path class="cls-11" d="M381.73,275.71a2.19,2.19,0,1,0-.79,3A2.2,2.2,0,0,0,381.73,275.71Z"/><path class="cls-11" d="M393.11,269.14a2.19,2.19,0,1,0-.8,3A2.2,2.2,0,0,0,393.11,269.14Z"/><path class="cls-11" d="M404.48,262.57a2.19,2.19,0,1,0-.79,3A2.2,2.2,0,0,0,404.48,262.57Z"/><path class="cls-11" d="M405.55,253.65a2.21,2.21,0,0,0,.15,2.43c.07.11.2.22.27.31a1.16,1.16,0,0,0,.24.2,1.65,1.65,0,0,0,1.18.19,4.65,4.65,0,0,0,1.57-.47,1.59,1.59,0,0,0,.83-1.52,2.45,2.45,0,0,0-1.12-1.86,3.56,3.56,0,0,0-.51-.27,1.41,1.41,0,0,0-.43-.1,2,2,0,0,0-.84.06A2.2,2.2,0,0,0,405.55,253.65Z"/><path class="cls-11" d="M394.18,247.08a2.19,2.19,0,1,0,3-.82A2.19,2.19,0,0,0,394.18,247.08Z"/><path class="cls-11" d="M382.8,240.51a2.19,2.19,0,1,0,3-.81A2.2,2.2,0,0,0,382.8,240.51Z"/><path class="cls-11" d="M371.42,233.94a2.19,2.19,0,1,0,3-.81A2.2,2.2,0,0,0,371.42,233.94Z"/><path class="cls-11" d="M360.05,227.37a2.19,2.19,0,1,0,3-.81A2.2,2.2,0,0,0,360.05,227.37Z"/><path class="cls-11" d="M348.67,220.8a2.19,2.19,0,1,0,3-.81A2.21,2.21,0,0,0,348.67,220.8Z"/><path class="cls-11" d="M337.29,214.24a2.19,2.19,0,1,0,3-.82A2.19,2.19,0,0,0,337.29,214.24Z"/><path class="cls-11" d="M325.92,207.67a2.19,2.19,0,1,0,3-.82A2.19,2.19,0,0,0,325.92,207.67Z"/><path class="cls-11" d="M314.58,201a1.75,1.75,0,0,0-.32,1.68,1.93,1.93,0,0,0,.2.44,2,2,0,0,0,.22.37,2.11,2.11,0,0,0,.65.57,2.21,2.21,0,0,0,2.21-3.82C316.41,199.65,315.4,200.15,314.58,201Z"/><path class="cls-11" d="M320.23,192.18a2.19,2.19,0,1,0-.79,3A2.2,2.2,0,0,0,320.23,192.18Z"/><path class="cls-11" d="M331.61,185.61a2.19,2.19,0,1,0-.8,3A2.2,2.2,0,0,0,331.61,185.61Z"/><path class="cls-11" d="M110.25,286.52a2.22,2.22,0,1,0,.82-3A2.21,2.21,0,0,0,110.25,286.52Z"/><path class="cls-11" d="M98.68,293.2a2.22,2.22,0,1,0,.82-3A2.21,2.21,0,0,0,98.68,293.2Z"/><path class="cls-11" d="M87.07,299.8a1.88,1.88,0,0,0,1.29,1.13,3,3,0,0,0,.94,0,2.21,2.21,0,1,0-1.37-4.11,2.35,2.35,0,0,0-.66.59,1.71,1.71,0,0,0-.31.69A2.76,2.76,0,0,0,87.07,299.8Z"/><path class="cls-11" d="M74.27,298.58a2.17,2.17,0,0,0-.22,1.68,2.26,2.26,0,0,0,.38.76,2.84,2.84,0,0,0,.86.64,2.09,2.09,0,0,0,3-1.28,2.47,2.47,0,0,0-1.18-2.73,1.57,1.57,0,0,0-.68-.15,2,2,0,0,0-.85.06A2.13,2.13,0,0,0,74.27,298.58Z"/><path class="cls-11" d="M62.7,291.9a2.22,2.22,0,1,0,3-.8A2.21,2.21,0,0,0,62.7,291.9Z"/><path class="cls-11" d="M51.13,285.22a2.22,2.22,0,1,0,3-.8A2.21,2.21,0,0,0,51.13,285.22Z"/><path class="cls-11" d="M39.56,278.54a2.22,2.22,0,1,0,3-.8A2.21,2.21,0,0,0,39.56,278.54Z"/><path class="cls-11" d="M31.28,269.81a1.53,1.53,0,0,0-1.74.11,2.57,2.57,0,0,0-.78,2.47,2.44,2.44,0,0,0,1.55,1.91,1.63,1.63,0,0,0,1.68-.42,3.74,3.74,0,0,0,.84-1.41,2.85,2.85,0,0,0,.26-.93c0-.17-.26-.31-.59-.65A5.27,5.27,0,0,0,31.28,269.81Z"/><path class="cls-11" d="M42.38,262.57a2.22,2.22,0,1,0-.82,3A2.22,2.22,0,0,0,42.38,262.57Z"/><path class="cls-11" d="M54,255.89a2.23,2.23,0,0,0-3.86,2.23A2.23,2.23,0,0,0,54,255.89Z"/><path class="cls-11" d="M65.53,249.21a2.23,2.23,0,0,0-3.86,2.23,2.23,2.23,0,0,0,3.86-2.23Z"/><path class="cls-11" d="M77.1,242.53a2.23,2.23,0,0,0-3.86,2.23,2.23,2.23,0,0,0,3.86-2.23Z"/><path class="cls-11" d="M88.67,235.85a2.23,2.23,0,0,0-3.86,2.23,2.23,2.23,0,0,0,3.86-2.23Z"/><path class="cls-11" d="M100.24,229.17a2.23,2.23,0,1,0-.83,3A2.24,2.24,0,0,0,100.24,229.17Z"/><path class="cls-11" d="M111.81,222.49a2.23,2.23,0,1,0-.83,3A2.23,2.23,0,0,0,111.81,222.49Z"/><path class="cls-11" d="M123.38,215.81a2.23,2.23,0,1,0-.83,3A2.23,2.23,0,0,0,123.38,215.81Z"/><path class="cls-11" d="M135,209.13a2.23,2.23,0,1,0-.83,3A2.23,2.23,0,0,0,135,209.13Z"/><path class="cls-11" d="M146.52,202.45a2.23,2.23,0,1,0-.83,3A2.23,2.23,0,0,0,146.52,202.45Z"/><path class="cls-11" d="M158.09,195.77a2.23,2.23,0,1,0-.83,3A2.23,2.23,0,0,0,158.09,195.77Z"/><path class="cls-11" d="M169.66,189.09a2.23,2.23,0,1,0-.83,3A2.23,2.23,0,0,0,169.66,189.09Z"/><path class="cls-11" d="M181.18,182.33a3.12,3.12,0,0,0-1.39-.91,1.88,1.88,0,0,0-1.59.19,2.2,2.2,0,1,0,2.2,3.82,2.48,2.48,0,0,0,1.11-1.41A1.77,1.77,0,0,0,181.18,182.33Z"/><path class="cls-11" d="M175.85,173.12a2.22,2.22,0,1,0,3-.79A2.21,2.21,0,0,0,175.85,173.12Z"/><path class="cls-11" d="M164.28,166.44a2.22,2.22,0,1,0,3-.79A2.21,2.21,0,0,0,164.28,166.44Z"/><path class="cls-11" d="M150.37,309.49a2.2,2.2,0,1,0,.8-3A2.2,2.2,0,0,0,150.37,309.49Z"/><path class="cls-11" d="M139,316.07a2.2,2.2,0,1,0,.8-3A2.2,2.2,0,0,0,139,316.07Z"/><path class="cls-11" d="M127.6,322.72a2.93,2.93,0,0,0,1.38.94,1.89,1.89,0,0,0,1.58-.19,2.2,2.2,0,0,0-2.2-3.82,2.45,2.45,0,0,0-1.08,1.39A1.82,1.82,0,0,0,127.6,322.72Z"/><path class="cls-11" d="M132.16,332a2.19,2.19,0,1,0-3,.81A2.2,2.2,0,0,0,132.16,332Z"/><path class="cls-11" d="M143.57,338.59a2.19,2.19,0,1,0-3,.81A2.2,2.2,0,0,0,143.57,338.59Z"/><path class="cls-11" d="M155,345.17a2.19,2.19,0,1,0-3,.82A2.19,2.19,0,0,0,155,345.17Z"/><path class="cls-11" d="M166.37,351.76a2.2,2.2,0,1,0-3,.81A2.2,2.2,0,0,0,166.37,351.76Z"/><path class="cls-11" d="M177.78,358.34a2.19,2.19,0,1,0-3,.81A2.19,2.19,0,0,0,177.78,358.34Z"/><path class="cls-11" d="M189.18,364.93a2.2,2.2,0,1,0-3,.81A2.2,2.2,0,0,0,189.18,364.93Z"/><path class="cls-11" d="M200.59,371.51a2.2,2.2,0,1,0-3,.81A2.21,2.21,0,0,0,200.59,371.51Z"/><ellipse class="cls-12" cx="194.55" cy="351.93" rx="33.82" ry="54.72" transform="translate(-178.32 502.52) rotate(-83.06)"/><ellipse class="cls-13" cx="146.31" cy="342.72" rx="62" ry="35.79"/><path class="cls-14" d="M157.6,360.1l-16.21-9.34c-2-1.14-1.72-3.12.55-4.44l15.62-9c2.27-1.31,5.71-1.45,7.68-.32l16.2,9.35c2,1.14,1.72,3.12-.55,4.43l-15.62,9C163,361.1,159.57,361.24,157.6,360.1Z"/><path class="cls-15" d="M160.82,364a8.79,8.79,0,0,1-4.26-1l-19.77-11.41A3.17,3.17,0,0,1,135,348.9c0-1.25.91-2.49,2.49-3.4l19-11c2.88-1.66,7.26-1.84,9.76-.39L186,345.49a3.18,3.18,0,0,1,1.82,2.69c0,1.25-.91,2.49-2.49,3.4l-19.05,11A11.36,11.36,0,0,1,160.82,364ZM162,333.89a10.51,10.51,0,0,0-5.1,1.27l-19,11c-1.33.77-2.1,1.76-2.1,2.72a2.43,2.43,0,0,0,1.43,2L157,362.3c2.29,1.32,6.32,1.15,9-.38l19-11c1.33-.77,2.09-1.76,2.09-2.72a2.43,2.43,0,0,0-1.42-2l-19.77-11.4A8,8,0,0,0,162,333.89Z"/><path class="cls-16" d="M182.77,330.23H169.05L165.24,328c-2-1.14-5.41-1-7.68.32l-3.77,2.19H140.07v9.21h0a2.24,2.24,0,0,0,1.32,2.06l16.21,9.35c2,1.13,5.4,1,7.67-.32l15.62-9a3.26,3.26,0,0,0,1.87-2.38h0Z"/><path class="cls-17" d="M180.89,341.18l-15.62,9c-2.27,1.32-5.7,1.46-7.67.32l-16.21-9.34a2.25,2.25,0,0,1-1.32-2.06h0v.63h0a2.24,2.24,0,0,0,1.32,2.06l16.21,9.35c2,1.13,5.4,1,7.67-.32l15.62-9a3.26,3.26,0,0,0,1.87-2.38h0v-.63h0A3.25,3.25,0,0,1,180.89,341.18Z"/><path class="cls-18" d="M140.94,340.4h0v-9.21h13.72l3.77-2.2c2.28-1.31,5.71-1.45,7.68-.32l3.81,2.19h12.86v-.63H169.05L165.24,328c-2-1.14-5.41-1-7.68.32l-3.77,2.19H140.07v9.21h0a2.24,2.24,0,0,0,1.32,2.06l.16.09A1.9,1.9,0,0,1,140.94,340.4Z"/><path class="cls-19" d="M157.6,342l-16.21-9.34c-2-1.14-1.72-3.12.55-4.44l15.62-9c2.27-1.31,5.71-1.45,7.68-.32l16.2,9.35c2,1.14,1.72,3.12-.55,4.43l-15.62,9C163,343,159.57,343.09,157.6,342Z"/><path class="cls-9" d="M181.44,328.17l-16.2-9.35a7.18,7.18,0,0,0-3.88-.74,6.5,6.5,0,0,1,2.79.74l16.21,9.35c2,1.14,1.72,3.12-.55,4.43l-15.62,9a8.66,8.66,0,0,1-3.8,1.06,9,9,0,0,0,4.88-1.06l15.62-9C183.16,331.29,183.41,329.31,181.44,328.17Z"/><path class="cls-18" d="M158.84,342l-16.21-9.34c-2-1.14-1.72-3.12.55-4.44l15.62-9a8.72,8.72,0,0,1,3.74-1.06,9,9,0,0,0-5,1.06l-15.62,9c-2.27,1.32-2.52,3.3-.55,4.44L157.6,342a7.16,7.16,0,0,0,3.93.75A6.27,6.27,0,0,1,158.84,342Z"/><ellipse class="cls-20" cx="412.58" cy="279.45" rx="33.82" ry="54.72" transform="translate(85.3 655.22) rotate(-83.06)"/><ellipse class="cls-21" cx="364.33" cy="270.23" rx="62" ry="35.79"/><path class="cls-14" d="M375.62,287.62l-16.2-9.35c-2-1.13-1.73-3.12.55-4.43l15.61-9c2.28-1.31,5.71-1.46,7.68-.32l16.21,9.35c2,1.13,1.72,3.12-.55,4.43l-15.62,9C381,288.61,377.59,288.75,375.62,287.62Z"/><path class="cls-22" d="M378.85,291.48a8.65,8.65,0,0,1-4.26-1h0l-19.77-11.4a3.16,3.16,0,0,1-1.82-2.69c0-1.25.91-2.48,2.49-3.4l19.05-11c2.87-1.66,7.25-1.83,9.76-.38L404.07,273a3.17,3.17,0,0,1,1.81,2.69c0,1.24-.9,2.48-2.48,3.4l-19,11A11.27,11.27,0,0,1,378.85,291.48ZM380,261.4a10.41,10.41,0,0,0-5.1,1.28l-19.05,11c-1.33.77-2.09,1.76-2.09,2.72a2.42,2.42,0,0,0,1.42,2L375,289.82c2.29,1.32,6.31,1.15,9-.39l19.05-11c1.33-.76,2.1-1.75,2.1-2.71a2.43,2.43,0,0,0-1.43-2l-19.77-11.4A7.82,7.82,0,0,0,380,261.4Z"/><path class="cls-23" d="M400.8,257.74H387.07l-3.81-2.18c-2-1.14-5.4-1-7.68.31l-3.77,2.2H358.09v9.21h0a2.22,2.22,0,0,0,1.32,2.06l16.2,9.34c2,1.14,5.41,1,7.68-.31l15.62-9a3.27,3.27,0,0,0,1.87-2.37h0Z"/><path class="cls-24" d="M398.92,268.7l-15.62,9c-2.27,1.31-5.71,1.45-7.68.32l-16.2-9.35a2.21,2.21,0,0,1-1.32-2.05h0v.63h0a2.22,2.22,0,0,0,1.32,2.06l16.2,9.34c2,1.14,5.41,1,7.68-.31l15.62-9a3.27,3.27,0,0,0,1.87-2.37h0v-.64h0A3.29,3.29,0,0,1,398.92,268.7Z"/><path class="cls-18" d="M359,267.92h0V258.7h13.72l3.77-2.19c2.27-1.31,5.71-1.46,7.68-.32l3.81,2.19H400.8v-.64H387.07l-3.81-2.18c-2-1.14-5.4-1-7.68.31l-3.77,2.2H358.09v9.21h0a2.22,2.22,0,0,0,1.32,2.06l.15.09A2,2,0,0,1,359,267.92Z"/><path class="cls-25" d="M375.62,269.47l-16.2-9.35c-2-1.13-1.73-3.12.55-4.43l15.61-9c2.28-1.31,5.71-1.46,7.68-.32l16.21,9.35c2,1.13,1.72,3.12-.55,4.43l-15.62,9C381,270.46,377.59,270.61,375.62,269.47Z"/><path class="cls-9" d="M399.47,255.69l-16.21-9.35a7.14,7.14,0,0,0-3.87-.75,6.54,6.54,0,0,1,2.79.75l16.2,9.35c2,1.13,1.73,3.12-.55,4.43l-15.61,9a8.85,8.85,0,0,1-3.81,1.07,9,9,0,0,0,4.89-1.07l15.62-9C401.19,258.81,401.44,256.82,399.47,255.69Z"/><path class="cls-18" d="M376.86,269.47l-16.2-9.35c-2-1.13-1.72-3.12.55-4.43l15.61-9a8.72,8.72,0,0,1,3.75-1.06,9.07,9.07,0,0,0-5,1.06l-15.61,9c-2.28,1.31-2.52,3.3-.55,4.43l16.2,9.35a7.12,7.12,0,0,0,3.94.74A6.31,6.31,0,0,1,376.86,269.47Z"/><ellipse class="cls-26" cx="379.44" cy="257.91" rx="9.6" ry="5.54"/><path class="cls-27" d="M372.66,255.58a15,15,0,0,1,13.57,0,5.31,5.31,0,0,1,2.7,3.12c.42-1.67-.48-3.43-2.7-4.71a15,15,0,0,0-13.57,0c-2.23,1.28-3.12,3-2.7,4.71A5.24,5.24,0,0,1,372.66,255.58Z"/><ellipse class="cls-28" cx="89.25" cy="290.73" rx="33.82" ry="54.72" transform="translate(-210.13 344.19) rotate(-83.06)"/><ellipse class="cls-29" cx="42.66" cy="284.67" rx="41.76" ry="24.11"/><path class="cls-14" d="M52.3,298.9l-16.21-9.35c-2-1.13-1.72-3.12.56-4.43l15.61-9c2.27-1.31,5.71-1.46,7.68-.32l16.21,9.35c2,1.13,1.72,3.12-.56,4.43l-15.61,9C57.71,299.89,54.27,300,52.3,298.9Z"/><path class="cls-30" d="M55.53,302.76a8.69,8.69,0,0,1-4.27-1l-19.77-11.4a3.17,3.17,0,0,1-1.81-2.69c0-1.25.9-2.49,2.49-3.4l19-11c2.87-1.66,7.25-1.83,9.76-.38l19.77,11.4A3.16,3.16,0,0,1,82.56,287c0,1.24-.91,2.48-2.49,3.4l-19,11A11.21,11.21,0,0,1,55.53,302.76Zm1.18-30.08a10.41,10.41,0,0,0-5.1,1.28l-19,11c-1.33.77-2.09,1.76-2.09,2.72a2.42,2.42,0,0,0,1.42,2l19.77,11.4c2.29,1.32,6.31,1.15,9-.39l19.05-11c1.33-.76,2.1-1.75,2.1-2.71a2.43,2.43,0,0,0-1.43-2l-19.77-11.4A7.82,7.82,0,0,0,56.71,272.68Z"/><path class="cls-31" d="M77.47,269H63.75l-3.81-2.19c-2-1.13-5.41-1-7.68.32l-3.77,2.2H34.77v9.21h0a2.23,2.23,0,0,0,1.31,2.06L52.3,290c2,1.14,5.41,1,7.68-.31l15.61-9a3.23,3.23,0,0,0,1.87-2.37h0Z"/><path class="cls-32" d="M75.59,280,60,289c-2.27,1.31-5.71,1.45-7.68.32L36.09,280a2.21,2.21,0,0,1-1.31-2.05h0v.63h0a2.23,2.23,0,0,0,1.31,2.06L52.3,290c2,1.14,5.41,1,7.68-.31l15.61-9a3.23,3.23,0,0,0,1.87-2.37h0v-.64h0A3.24,3.24,0,0,1,75.59,280Z"/><path class="cls-18" d="M35.64,279.2h0V270H49.36l3.77-2.19c2.27-1.31,5.71-1.46,7.68-.32l3.8,2.19H77.47V269H63.75l-3.81-2.19c-2-1.13-5.41-1-7.68.32l-3.77,2.2H34.77v9.21h0a2.23,2.23,0,0,0,1.31,2.06l.16.09A2,2,0,0,1,35.64,279.2Z"/><path class="cls-33" d="M52.3,280.75,36.09,271.4c-2-1.13-1.72-3.12.56-4.43l15.61-9c2.27-1.31,5.71-1.46,7.68-.32L76.15,267c2,1.13,1.72,3.12-.56,4.43l-15.61,9C57.71,281.74,54.27,281.89,52.3,280.75Z"/><path class="cls-9" d="M76.15,267l-16.21-9.35a7.16,7.16,0,0,0-3.88-.75,6.58,6.58,0,0,1,2.8.75L75.06,267c2,1.13,1.72,3.12-.55,4.43l-15.61,9a8.89,8.89,0,0,1-3.81,1.07A9,9,0,0,0,60,280.43l15.61-9C77.87,270.09,78.11,268.1,76.15,267Z"/><path class="cls-18" d="M53.54,280.75l-16.2-9.35c-2-1.13-1.72-3.12.55-4.43l15.61-9a8.72,8.72,0,0,1,3.75-1.06,9.07,9.07,0,0,0-5,1.06l-15.61,9c-2.28,1.31-2.52,3.3-.56,4.43l16.21,9.35a7.09,7.09,0,0,0,3.94.74A6.27,6.27,0,0,1,53.54,280.75Z"/><path class="cls-14" d="M225,406.1l31.8-18.36c2.26-1.3,2-3.58-.63-5.09L225.63,365c-2.61-1.5-6.56-1.67-8.82-.36L185,383c-2.26,1.3-2,3.58.64,5.09l30.53,17.63C218.79,407.24,222.74,407.41,225,406.1Z"/><path class="cls-34" d="M221.22,411.2a12.47,12.47,0,0,1-6.07-1.51l-36-20.77c-1.73-1-2.73-2.36-2.73-3.72a3.47,3.47,0,0,1,2-2.93l37.46-21.63c2.76-1.59,7.59-1.4,10.76.43l36,20.77c1.74,1,2.73,2.36,2.73,3.72a3.46,3.46,0,0,1-2,2.93l-37.46,21.63A9.66,9.66,0,0,1,221.22,411.2Zm-.62-50.9a8.91,8.91,0,0,0-4.33,1l-37.46,21.63a2.77,2.77,0,0,0-1.61,2.28c0,1.09.86,2.2,2.36,3.07l36,20.76c3,1.72,7.46,1.91,10,.44L263,387.84a2.75,2.75,0,0,0,1.61-2.28c0-1.09-.86-2.21-2.36-3.07l-36-20.77A11.71,11.71,0,0,0,220.6,360.3Z"/><path class="cls-35" d="M183.49,366.76h15.77l17.55-10.14c2.26-1.31,6.21-1.14,8.82.37l16.93,9.77h15.76v10.58h0a2.54,2.54,0,0,1-1.51,2.37L225,398.07c-2.26,1.3-6.21,1.14-8.82-.37l-30.53-17.63a3.73,3.73,0,0,1-2.15-2.73h0Z"/><path class="cls-36" d="M185.65,379.34,216.18,397c2.61,1.51,6.56,1.67,8.82.37L256.8,379a2.54,2.54,0,0,0,1.51-2.37h0v.73h0a2.54,2.54,0,0,1-1.51,2.37L225,398.07c-2.26,1.3-6.21,1.14-8.82-.37l-30.53-17.63a3.73,3.73,0,0,1-2.15-2.73h0v-.73h0A3.73,3.73,0,0,0,185.65,379.34Z"/><path class="cls-18" d="M257.32,378.07h0V367.49H241.56l-16.92-9.77c-2.61-1.51-6.56-1.68-8.82-.37l-17.56,10.14H183.49v-.73h15.77l17.55-10.14c2.26-1.31,6.21-1.14,8.82.37l16.93,9.77h15.76v10.58h0a2.54,2.54,0,0,1-1.51,2.37l-.18.1A2.24,2.24,0,0,0,257.32,378.07Z"/><path class="cls-9" d="M184.38,367.6v10.54h0a2.78,2.78,0,0,0,.76,1.61,3.39,3.39,0,0,1-1.65-2.41h0V366.86A4.86,4.86,0,0,1,184.38,367.6Z"/><path class="cls-37" d="M225,387.48l31.8-18.36c2.26-1.31,2-3.59-.63-5.09L225.63,346.4c-2.61-1.51-6.56-1.67-8.82-.37L185,364.39c-2.26,1.31-2,3.59.64,5.09l30.53,17.63C218.79,388.62,222.74,388.78,225,387.48Z"/><path class="cls-9" d="M185,364.39,216.81,346a8.31,8.31,0,0,1,4.45-.86,7.53,7.53,0,0,0-3.2.86l-31.8,18.36c-2.26,1.31-2,3.59.63,5.09l30.53,17.63a10.06,10.06,0,0,0,4.37,1.23,10.36,10.36,0,0,1-5.61-1.23l-30.53-17.63C183,368,182.75,365.7,185,364.39Z"/><path class="cls-38" d="M224,382.18l23.68-13.67c1.68-1,1.47-2.66-.47-3.79L224.43,351.6a7.32,7.32,0,0,0-6.57-.27L194.18,365c-1.68,1-1.47,2.67.48,3.79l22.73,13.12A7.26,7.26,0,0,0,224,382.18Z"/><path class="cls-39" d="M223.11,377.93l17.16-9.9c1.22-.7,1.06-1.93-.35-2.75l-16.46-9.5a5.25,5.25,0,0,0-4.76-.2l-17.15,9.9c-1.22.7-1.07,1.93.34,2.75l16.47,9.51A5.26,5.26,0,0,0,223.11,377.93Z"/><path class="cls-18" d="M223.57,387.48l31.8-18.36c2.26-1.31,2-3.59-.63-5.09L224.21,346.4a9.88,9.88,0,0,0-4.3-1.22,10.38,10.38,0,0,1,5.72,1.22L256.17,364c2.61,1.5,2.89,3.78.63,5.09L225,387.48a8.27,8.27,0,0,1-4.52.85A7.2,7.2,0,0,0,223.57,387.48Z"/><g class="cls-40"><path class="cls-27" d="M239.93,366.62l-16.47-9.51a5.32,5.32,0,0,0-4.76-.2l-17.16,9.91a1.88,1.88,0,0,0-.6.54,1.28,1.28,0,0,1,.6-1.88l17.16-9.91a5.32,5.32,0,0,1,4.76.2l16.47,9.51c1.1.64,1.42,1.52.94,2.21A2.58,2.58,0,0,0,239.93,366.62Z"/><path class="cls-41" d="M239.93,368.24l-16.47-9.51a5.28,5.28,0,0,0-4.76-.2l-17.16,9.91a1.62,1.62,0,0,0-.5.42,1.28,1.28,0,0,1,.5-2l17.16-9.91a5.32,5.32,0,0,1,4.76.2l16.47,9.51c1.16.67,1.46,1.62.85,2.33A2.94,2.94,0,0,0,239.93,368.24Z"/><path class="cls-42" d="M240.61,370.74a2.92,2.92,0,0,0-.68-.53l-16.47-9.51a5.32,5.32,0,0,0-4.76-.2l-17.16,9.91a2.27,2.27,0,0,0-.34.24,1.3,1.3,0,0,1,.34-2.21l17.16-9.91a5.28,5.28,0,0,1,4.76.2l16.47,9.51C241.19,369,241.44,370,240.61,370.74Z"/></g><path class="cls-43" d="M200.72,338.07h40.37v28.77h0a1.43,1.43,0,0,1-.82,1.19l-17.16,9.9a5.26,5.26,0,0,1-4.75-.19l-16.47-9.51a2,2,0,0,1-1.16-1.47h0Z"/><path class="cls-14" d="M365,187.12l31.8-18.36c2.26-1.31,2-3.59-.63-5.09L365.59,146c-2.62-1.51-6.56-1.67-8.83-.37L325,164c-2.26,1.31-2,3.59.64,5.09l30.53,17.63C358.74,188.26,362.69,188.42,365,187.12Z"/><path class="cls-44" d="M361.17,192.21a12.47,12.47,0,0,1-6.07-1.51l-36-20.76c-1.73-1-2.73-2.36-2.73-3.72a3.46,3.46,0,0,1,2-2.93l37.46-21.63c2.76-1.6,7.59-1.4,10.76.43l36,20.76c1.74,1,2.73,2.36,2.73,3.72a3.44,3.44,0,0,1-2,2.93l-37.46,21.63A9.55,9.55,0,0,1,361.17,192.21Zm-.62-50.89a8.8,8.8,0,0,0-4.33,1l-37.46,21.63a2.77,2.77,0,0,0-1.61,2.28c0,1.08.86,2.2,2.36,3.07l36,20.76c3,1.71,7.46,1.91,10,.43L403,168.85a2.75,2.75,0,0,0,1.61-2.28c0-1.08-.86-2.2-2.36-3.07l-36-20.76A11.71,11.71,0,0,0,360.55,141.32Z"/><path class="cls-45" d="M323.44,147.77h15.77l17.55-10.13c2.27-1.31,6.21-1.15,8.83.36l16.92,9.77h15.76v10.59h0a2.54,2.54,0,0,1-1.51,2.36L365,179.08c-2.26,1.31-6.21,1.14-8.82-.36L325.6,161.09a3.76,3.76,0,0,1-2.15-2.73h0Z"/><path class="cls-46" d="M325.6,160.36,356.13,178c2.61,1.5,6.56,1.67,8.82.36L396.75,160a2.54,2.54,0,0,0,1.51-2.36h0v.73h0a2.54,2.54,0,0,1-1.51,2.36L365,179.08c-2.26,1.31-6.21,1.14-8.82-.36L325.6,161.09a3.76,3.76,0,0,1-2.15-2.73h0v-.73h0A3.76,3.76,0,0,0,325.6,160.36Z"/><path class="cls-18" d="M397.27,159.09h0V148.5H381.51l-16.92-9.77c-2.61-1.51-6.56-1.67-8.82-.36L338.21,148.5H323.44v-.73h15.77l17.55-10.13c2.27-1.31,6.21-1.15,8.83.36l16.92,9.77h15.76v10.59h0a2.54,2.54,0,0,1-1.51,2.36l-.18.1A2.23,2.23,0,0,0,397.27,159.09Z"/><path class="cls-9" d="M324.33,148.62v10.53h0a2.76,2.76,0,0,0,.75,1.62,3.41,3.41,0,0,1-1.65-2.41h0V147.88A4.49,4.49,0,0,1,324.33,148.62Z"/><path class="cls-47" d="M365,168.49l31.8-18.36c2.26-1.3,2-3.58-.63-5.09l-30.53-17.63c-2.62-1.5-6.56-1.67-8.83-.36L325,145.41c-2.26,1.3-2,3.58.64,5.09l30.53,17.63C358.74,169.64,362.69,169.8,365,168.49Z"/><path class="cls-9" d="M325,145.41l31.8-18.36a8.17,8.17,0,0,1,4.46-.86,7.26,7.26,0,0,0-3.21.86l-31.8,18.36c-2.26,1.3-2,3.58.63,5.09l30.53,17.63a10,10,0,0,0,4.37,1.22,10.35,10.35,0,0,1-5.61-1.22L325.6,150.5C323,149,322.7,146.71,325,145.41Z"/><path class="cls-48" d="M363.9,163.2l23.68-13.67c1.68-1,1.47-2.67-.47-3.79l-22.73-13.12a7.29,7.29,0,0,0-6.57-.28L334.14,146c-1.69,1-1.48,2.67.47,3.79l22.73,13.13A7.3,7.3,0,0,0,363.9,163.2Z"/><path class="cls-39" d="M363.07,159l17.15-9.9c1.22-.71,1.06-1.94-.34-2.75l-16.47-9.51a5.32,5.32,0,0,0-4.76-.2L341.5,146.5c-1.22.7-1.07,1.93.34,2.74l16.47,9.51A5.32,5.32,0,0,0,363.07,159Z"/><path class="cls-18" d="M363.52,168.49l31.8-18.36c2.26-1.3,2-3.58-.63-5.09l-30.53-17.63a10.16,10.16,0,0,0-4.3-1.22,10.43,10.43,0,0,1,5.73,1.22L396.12,145c2.61,1.51,2.89,3.79.63,5.09L365,168.49a8.18,8.18,0,0,1-4.52.86A7.21,7.21,0,0,0,363.52,168.49Z"/><g class="cls-49"><path class="cls-27" d="M379.88,147.64l-16.47-9.51a5.25,5.25,0,0,0-4.76-.2l-17.16,9.91a1.77,1.77,0,0,0-.6.54,1.27,1.27,0,0,1,.6-1.88l17.16-9.91a5.25,5.25,0,0,1,4.76.2l16.47,9.51c1.1.63,1.42,1.51.94,2.21A2.58,2.58,0,0,0,379.88,147.64Z"/><path class="cls-41" d="M379.88,149.25l-16.47-9.51a5.28,5.28,0,0,0-4.76-.19l-17.16,9.9a2.13,2.13,0,0,0-.5.42,1.27,1.27,0,0,1,.5-2l17.16-9.91a5.25,5.25,0,0,1,4.76.2l16.47,9.51c1.16.67,1.46,1.62.85,2.33A3,3,0,0,0,379.88,149.25Z"/><path class="cls-42" d="M380.56,151.76a2.92,2.92,0,0,0-.68-.53l-16.47-9.52a5.28,5.28,0,0,0-4.76-.19l-17.16,9.9a2.3,2.3,0,0,0-.34.25,1.3,1.3,0,0,1,.34-2.22l17.16-9.9a5.28,5.28,0,0,1,4.76.19l16.47,9.51C381.14,150,381.39,151,380.56,151.76Z"/></g><path class="cls-50" d="M340.67,119.08H381v28.78h0a1.42,1.42,0,0,1-.82,1.19L363.07,159a5.32,5.32,0,0,1-4.76-.2l-16.47-9.51a2,2,0,0,1-1.16-1.47h0Z"/><path class="cls-14" d="M436.41,242.32l38.43-22.19c4.41-2.55,3.86-7-1.24-9.94h0c-5.09-2.95-12.81-3.27-17.22-.72L418,231.66c-4.42,2.55-3.86,7,1.23,10h0C424.28,244.55,432,244.87,436.41,242.32Z"/><path class="cls-51" d="M426.79,246.63a22.88,22.88,0,0,1-11.13-2.77c-3.13-1.81-4.93-4.23-4.93-6.64,0-2,1.26-3.86,3.54-5.18l43.15-24.91c5.05-2.92,13.89-2.56,19.71.8,3.13,1.81,4.92,4.23,4.92,6.64,0,2-1.25,3.86-3.53,5.18l-43.15,24.91A17.55,17.55,0,0,1,426.79,246.63ZM466,205.9a16.8,16.8,0,0,0-8.21,1.88l-43.15,24.91c-2,1.18-3.15,2.79-3.15,4.53,0,2.14,1.65,4.32,4.54,6,5.61,3.24,14.12,3.6,19,.8l43.15-24.91c2-1.18,3.16-2.78,3.16-4.53,0-2.13-1.66-4.32-4.55-6A22.12,22.12,0,0,0,466,205.9Z"/><path class="cls-52" d="M419.83,232l5.11-1,47.4-27.5,5-4.55,4.95-7.27,2.65-7.5.65-6.29-1.2-4.81-2.81-3.79-4-1L457,157.24s-23.94,16.44-24.92,16.8-16.42,32.11-16.42,32.11l-3.39,21.41,3.81,3.5Z"/><path class="cls-53" d="M391.21,211.09c0-8.2,5.76-18.17,12.86-22.27a12.34,12.34,0,0,1,4.89-1.71c.73-7.38,5.86-15.73,12.08-19.32a14,14,0,0,1,2.49-1.15c1.89-6,6.17-11.95,11.15-14.83,3.51-2,6.67-2.13,8.89-.67h0l9,5a8.84,8.84,0,0,1,6.23.51v0l.19.1,0,0,22.31,12.06-5.7-.12-6.93,2.61-.5-4.49-2.77-3.12-2.35-1-.86-.09-3.56,1.23c-.09-.48-.85-.25-1.14-.25-1.78,1.07-2.85,2.86-4.28,3.93-4.28,2.85-4.28,9.39-7.85,11.88-5.71,4.29-11.06,10.24-13.92,16.66a.66.66,0,0,0,.28.86l-.58,3.22-5,1.37-4.76,3.83-4.34,5.5-1.49,3.36-1.68,4.61-.4,4.64.4,3.54,3.16,5.11-21.78-12.45h0l.19.09C392.85,218.45,391.21,215.47,391.21,211.09Z"/><path class="cls-18" d="M456.17,155.81a7.6,7.6,0,0,1,2.66.78v0l.19.1,0,0,22.31,12.06-1.25,0c-.49-.38-1-.84-1.45-.81l-21.9-11.85h0l-.19-.1v0A3,3,0,0,0,456.17,155.81Z"/><path class="cls-9" d="M391.21,211.09c0-8.2,5.76-18.17,12.86-22.27.35-.2.69-.38,1-.55-7.2,4.19-13,14.31-13,22.63,0,4.45,1.67,7.48,4.32,8.72l-.2-.1h0l20.3,11.61.55.89-21.78-12.45h0l.19.09C392.85,218.45,391.21,215.47,391.21,211.09Z"/><path class="cls-54" d="M431.48,196c2.86-6.42,7.38-14.51,14.51-16.71,1.07-3.21,3-9,7.26-11.83,1.43-1.07,2.5-2.86,4.28-3.93.29,0,1.05-.23,1.14.25l-.11,0c0,9.68-6.83,21.4-15.2,26.23l-11.57,6.68,0,.13A.66.66,0,0,1,431.48,196Z"/><path class="cls-55" d="M426,201.08a12.29,12.29,0,0,1,4.91-1.72c.74-7.43,5.9-15.84,12.16-19.45a14.35,14.35,0,0,1,2.52-1.16c1.9-6.07,6.2-12,11.22-14.93,6.75-3.9,12.23-.74,12.25,7.05.52-.36,1-.69,1.57-1,8.45-4.88,15.3-.92,15.3,8.83s-6.85,21.63-15.3,26.51L426,231c-7.16,4.13-12.95.78-12.95-7.48S418.8,205.2,426,201.08Z"/><path class="cls-9" d="M426,201.08a11.16,11.16,0,0,1,1.18-.62c-7.14,4.14-13.22,14.8-13.22,23,0,5.62,2.68,8.95,6.65,9.22-4.46.21-7.56-3.18-7.56-9.22C413,215.25,418.8,205.2,426,201.08Z"/><path class="cls-18" d="M485.3,179c0-7.85-4.38-12-10.47-10.87,6.39-1.56,11.06,2.53,11.06,10.58,0,8.74-5.49,19.15-12.71,24.74C480.11,197.65,485.3,187.53,485.3,179Z"/><path class="cls-39" d="M460.89,192.86c0,2.12,1.49,3,3.33,1.92a7.36,7.36,0,0,0,3.33-5.77c0-2.13-1.49-3-3.33-1.92A7.35,7.35,0,0,0,460.89,192.86Z"/><path class="cls-27" d="M462.57,194a7.38,7.38,0,0,0,3.33-5.78,2.9,2.9,0,0,0-.39-1.54c1.2-.11,2,.77,2,2.37a7.36,7.36,0,0,1-3.33,5.77c-1.28.74-2.39.53-2.94-.38A3.19,3.19,0,0,0,462.57,194Z"/><path class="cls-39" d="M450.65,198.77c0,2.12,1.5,3,3.34,1.92a7.36,7.36,0,0,0,3.33-5.77c0-2.13-1.49-3-3.33-1.93A7.39,7.39,0,0,0,450.65,198.77Z"/><path class="cls-39" d="M440.42,204.67c0,2.13,1.49,3,3.33,1.93a7.36,7.36,0,0,0,3.33-5.77c0-2.13-1.49-3-3.33-1.93A7.38,7.38,0,0,0,440.42,204.67Z"/><path class="cls-27" d="M452.34,199.87a7.38,7.38,0,0,0,3.33-5.77,2.93,2.93,0,0,0-.39-1.55c1.2-.11,2,.78,2,2.37a7.35,7.35,0,0,1-3.33,5.77c-1.29.74-2.39.53-2.95-.38A3.18,3.18,0,0,0,452.34,199.87Z"/><path class="cls-27" d="M442.1,205.78a7.36,7.36,0,0,0,3.33-5.77,3,3,0,0,0-.39-1.55c1.2-.11,2,.78,2,2.37a7.35,7.35,0,0,1-3.33,5.77c-1.28.75-2.39.53-2.94-.38A3.14,3.14,0,0,0,442.1,205.78Z"/><path class="cls-56" d="M222,252.78l32-18.49c2.27-1.31,2-3.61-.64-5.12l-30.75-17.76c-2.63-1.51-6.61-1.68-8.88-.37l-32,18.49c-2.27,1.32-2,3.62.64,5.13l30.75,17.76C215.77,253.93,219.74,254.1,222,252.78Z"/><path class="cls-57" d="M218.21,257.91a12.53,12.53,0,0,1-6.11-1.52l-36.22-20.91c-1.75-1-2.75-2.37-2.75-3.74a3.5,3.5,0,0,1,2-3L212.85,207c2.79-1.6,7.65-1.41,10.85.44l36.22,20.91c1.75,1,2.75,2.37,2.75,3.74a3.5,3.5,0,0,1-2,3L223,256.83A9.68,9.68,0,0,1,218.21,257.91Zm-.62-51.25a8.89,8.89,0,0,0-4.36,1l-37.72,21.78a2.76,2.76,0,0,0-1.62,2.29c0,1.1.86,2.22,2.37,3.09l36.22,20.92c3,1.72,7.51,1.92,10.09.43l37.72-21.78a2.76,2.76,0,0,0,1.62-2.3c0-1.09-.86-2.22-2.37-3.09l-36.22-20.91A11.85,11.85,0,0,0,217.59,206.66Z"/><path class="cls-58" d="M180.21,149.58H196.1l17.68-10.21c2.27-1.31,6.25-1.15,8.88.37l17,9.84h15.88v45.95h0a2.57,2.57,0,0,1-1.52,2.38L222,216.4c-2.28,1.32-6.25,1.15-8.88-.36l-30.75-17.76a3.73,3.73,0,0,1-2.16-2.75h0Z"/><path class="cls-59" d="M182.39,197.55l30.75,17.75c2.63,1.52,6.6,1.68,8.88.37l32-18.49a2.57,2.57,0,0,0,1.52-2.38h0v.73h0a2.57,2.57,0,0,1-1.52,2.38L222,216.4c-2.28,1.32-6.25,1.15-8.88-.36l-30.75-17.76a3.73,3.73,0,0,1-2.16-2.75h0v-.73h0A3.76,3.76,0,0,0,182.39,197.55Z"/><path class="cls-18" d="M254.57,196.27h0v-46H238.7l-17-9.84c-2.63-1.52-6.61-1.69-8.89-.37l-17.68,10.21H180.21v-.74H196.1l17.68-10.21c2.27-1.31,6.25-1.15,8.88.37l17,9.84h15.88v45.95h0a2.57,2.57,0,0,1-1.52,2.38l-.18.11A2.24,2.24,0,0,0,254.57,196.27Z"/><path class="cls-9" d="M181.12,150.43v45.91h0a2.81,2.81,0,0,0,.76,1.62,3.44,3.44,0,0,1-1.66-2.43h0V149.69A4.61,4.61,0,0,1,181.12,150.43Z"/><path class="cls-60" d="M222,170.45l32-18.49c2.27-1.31,2-3.61-.64-5.13l-30.75-17.75c-2.63-1.52-6.61-1.68-8.88-.37l-32,18.49c-2.27,1.31-2,3.61.64,5.13l30.75,17.75C215.77,171.6,219.74,171.76,222,170.45Z"/><path class="cls-9" d="M181.75,147.2l32-18.49a8.31,8.31,0,0,1,4.48-.87,7.52,7.52,0,0,0-3.23.87L183,147.2c-2.28,1.31-2,3.61.63,5.13l30.75,17.75a10.19,10.19,0,0,0,4.4,1.24,10.51,10.51,0,0,1-5.65-1.24l-30.75-17.75C179.76,150.81,179.48,148.51,181.75,147.2Z"/><path class="cls-61" d="M221,165.12l23.84-13.77c1.7-1,1.48-2.69-.47-3.82l-22.9-13.21a7.34,7.34,0,0,0-6.61-.28L191,147.81c-1.7,1-1.48,2.69.47,3.82l22.89,13.21A7.36,7.36,0,0,0,221,165.12Z"/><path class="cls-39" d="M220.12,160.84l17.28-10c1.22-.71,1.07-1.94-.35-2.76l-16.58-9.58a5.32,5.32,0,0,0-4.79-.2l-17.28,10c-1.23.71-1.07,1.94.35,2.76l16.58,9.58A5.32,5.32,0,0,0,220.12,160.84Z"/><path class="cls-18" d="M220.59,170.45l32-18.49c2.28-1.31,2-3.61-.64-5.13l-30.75-17.75a10.12,10.12,0,0,0-4.33-1.23,10.45,10.45,0,0,1,5.77,1.23l30.75,17.75c2.63,1.52,2.91,3.82.64,5.13l-32,18.49a8.27,8.27,0,0,1-4.55.86A7.39,7.39,0,0,0,220.59,170.45Z"/><g class="cls-62"><path class="cls-27" d="M237.06,149.45l-16.59-9.58a5.32,5.32,0,0,0-4.79-.2l-17.29,10a1.77,1.77,0,0,0-.6.54,1.28,1.28,0,0,1,.6-1.89l17.29-10a5.32,5.32,0,0,1,4.79.2l16.59,9.58c1.1.63,1.43,1.52.95,2.22A2.62,2.62,0,0,0,237.06,149.45Z"/><path class="cls-41" d="M237.06,151.07l-16.59-9.58a5.35,5.35,0,0,0-4.79-.19l-17.29,10a2,2,0,0,0-.5.43,1.29,1.29,0,0,1,.5-2l17.29-10a5.32,5.32,0,0,1,4.79.2l16.59,9.58c1.17.67,1.46,1.63.85,2.34A3,3,0,0,0,237.06,151.07Z"/><path class="cls-42" d="M237.74,153.6a2.94,2.94,0,0,0-.68-.54l-16.59-9.58a5.32,5.32,0,0,0-4.79-.2l-17.29,10a1.68,1.68,0,0,0-.33.25,1.32,1.32,0,0,1,.33-2.24l17.29-10a5.35,5.35,0,0,1,4.79.19l16.59,9.58C238.33,151.81,238.58,152.87,237.74,153.6Z"/></g><path class="cls-39" d="M206.86,204.31l1.77,1c.46.27.83,0,.83-.62v-24.8a2,2,0,0,0-.83-1.59l-1.77-1c-.46-.27-.83,0-.83.62v24.81A2,2,0,0,0,206.86,204.31Z"/><path class="cls-27" d="M206.86,177.3l.42.24V201.9a2,2,0,0,0,.83,1.58l1.35.78v.45c0,.61-.37.89-.83.62l-1.77-1a2,2,0,0,1-.83-1.58V177.92C206,177.32,206.4,177,206.86,177.3Z"/><path class="cls-39" d="M200.31,200.53l1.78,1c.46.27.83,0,.83-.62v-24.8a2,2,0,0,0-.83-1.58l-1.78-1c-.45-.26-.82,0-.82.63V199A2,2,0,0,0,200.31,200.53Z"/><path class="cls-39" d="M193.77,196.75l1.78,1c.45.26.82,0,.82-.63v-24.8a2,2,0,0,0-.82-1.58l-1.78-1c-.46-.26-.83,0-.83.63v24.8A2,2,0,0,0,193.77,196.75Z"/><path class="cls-39" d="M187.23,193l1.77,1c.46.26.83,0,.83-.63v-24.8A2,2,0,0,0,189,167l-1.77-1c-.46-.27-.83,0-.83.62v24.8A2,2,0,0,0,187.23,193Z"/><path class="cls-27" d="M200.31,173.52l.43.25v24.35a2,2,0,0,0,.83,1.58l1.35.78v.45c0,.61-.37.89-.83.62l-1.78-1a2,2,0,0,1-.82-1.58v-24.8C199.49,173.54,199.86,173.26,200.31,173.52Z"/><path class="cls-27" d="M193.77,169.74l.43.25v24.35a2,2,0,0,0,.82,1.58l1.35.78v.45c0,.61-.37.89-.82.63l-1.78-1a2,2,0,0,1-.83-1.58v-24.8C192.94,169.76,193.31,169.48,193.77,169.74Z"/><path class="cls-27" d="M187.23,166l.42.24v24.35a2,2,0,0,0,.83,1.59l1.35.77v.45c0,.61-.37.89-.83.63l-1.77-1a2,2,0,0,1-.83-1.58v-24.8C186.4,166,186.77,165.7,187.23,166Z"/><path class="cls-63" d="M224.66,207.35a.93.93,0,0,1-.46-.12,1.41,1.41,0,0,1-.59-1.29V179.7A3.38,3.38,0,0,1,225,177l23.13-13.35a1.09,1.09,0,0,1,1.12-.07,1.4,1.4,0,0,1,.58,1.28V191.1a3.38,3.38,0,0,1-1.43,2.71l-23.13,13.35A1.27,1.27,0,0,1,224.66,207.35ZM248.82,164a.85.85,0,0,0-.38.12l-23.13,13.35a2.89,2.89,0,0,0-1.16,2.24v26.24a.93.93,0,0,0,.32.82.61.61,0,0,0,.57-.07l23.13-13.36a2.83,2.83,0,0,0,1.16-2.23V164.85A.93.93,0,0,0,249,164,.49.49,0,0,0,248.82,164Z"/><ellipse class="cls-39" cx="246.48" cy="169.35" rx="1.59" ry="0.92" transform="translate(-23.42 298.12) rotate(-60)"/><path class="cls-39" d="M245.35,173.65c0,.71.5,1,1.13.65a2.5,2.5,0,0,0,1.12-2c0-.72-.5-1-1.12-.65A2.47,2.47,0,0,0,245.35,173.65Z"/><path class="cls-39" d="M245.35,177.3c0,.72.5,1,1.13.65A2.49,2.49,0,0,0,247.6,176c0-.72-.5-1-1.12-.65A2.47,2.47,0,0,0,245.35,177.3Z"/><path class="cls-27" d="M245.91,177.5a2.5,2.5,0,0,0,1.13-1.95,1.22,1.22,0,0,0-.06-.35c.37,0,.62.29.62.8a2.49,2.49,0,0,1-1.12,1.95c-.51.29-.93.15-1.07-.3A1,1,0,0,0,245.91,177.5Z"/><path class="cls-27" d="M245.91,173.85A2.5,2.5,0,0,0,247,171.9a1.16,1.16,0,0,0-.06-.35c.37,0,.62.29.62.79a2.47,2.47,0,0,1-1.12,1.95c-.51.3-.93.15-1.07-.29A1,1,0,0,0,245.91,173.85Z"/><path class="cls-27" d="M245.91,170.2a2.51,2.51,0,0,0,1.13-1.95,1.29,1.29,0,0,0-.06-.36c.37,0,.62.29.62.8a2.49,2.49,0,0,1-1.12,1.95c-.51.29-.93.15-1.07-.3A1,1,0,0,0,245.91,170.2Z"/><path class="cls-63" d="M226.75,194.25l.74-.43a1,1,0,0,0,.42-.8v-3.58c0-.31-.19-.45-.42-.32l-.74.43a1,1,0,0,0-.42.8v3.58C226.33,194.24,226.52,194.38,226.75,194.25Z"/><path class="cls-64" d="M197.57,63.07H238.2v86.61h0a1.41,1.41,0,0,1-.82,1.19l-17.26,10a5.32,5.32,0,0,1-4.79-.2l-16.57-9.57a2,2,0,0,1-1.17-1.48h0Z"/><path class="cls-65" d="M199.5,71.33h36.77v78.38h0a1.27,1.27,0,0,1-.74,1.08l-15.62,9a4.83,4.83,0,0,1-4.34-.18l-15-8.66a1.82,1.82,0,0,1-1.05-1.34h0Z"/><path class="cls-39" d="M226,142.42a1.51,1.51,0,1,0,1.51-1.51A1.52,1.52,0,0,0,226,142.42Z"/><path class="cls-39" d="M213.53,132.27a2.59,2.59,0,1,0,2.59-2.58A2.59,2.59,0,0,0,213.53,132.27Z"/><path class="cls-39" d="M218.64,130.63a.66.66,0,1,0,.66-.67A.66.66,0,0,0,218.64,130.63Z"/><path class="cls-39" d="M206.73,117.66a1.29,1.29,0,1,0,1.29-1.29A1.29,1.29,0,0,0,206.73,117.66Z"/><circle class="cls-39" cx="214.83" cy="106.69" r="0.91"/><circle class="cls-39" cx="226.01" cy="99.7" r="1.65"/><path class="cls-39" d="M220.23,85.85a.93.93,0,1,0,.92-.92A.93.93,0,0,0,220.23,85.85Z"/><path class="cls-39" d="M213.1,92a1.09,1.09,0,0,0,2.17,0,1.09,1.09,0,1,0-2.17,0Z"/><path class="cls-39" d="M212.29,89.73a.52.52,0,0,0,.52.52.52.52,0,0,0,.53-.52.53.53,0,0,0-.53-.53A.52.52,0,0,0,212.29,89.73Z"/><circle class="cls-39" cx="206.98" cy="78.44" r="1.52"/><path class="cls-14" d="M277.55,287.27l32-18.48c2.28-1.32,2-3.62-.64-5.13L278.19,245.9c-2.63-1.51-6.61-1.68-8.89-.36l-32,18.49c-2.28,1.31-2,3.61.64,5.12l30.74,17.76C271.29,288.42,275.27,288.59,277.55,287.27Z"/><path class="cls-66" d="M273.74,292.41a12.51,12.51,0,0,1-6.11-1.53L231.41,270c-1.75-1-2.76-2.37-2.76-3.74a3.5,3.5,0,0,1,2-3l37.73-21.78c2.78-1.6,7.65-1.41,10.84.44l36.22,20.91c1.75,1,2.76,2.37,2.76,3.75a3.5,3.5,0,0,1-2,3l-37.73,21.78A9.64,9.64,0,0,1,273.74,292.41Zm-.63-51.26a8.88,8.88,0,0,0-4.35,1L231,263.93a2.78,2.78,0,0,0-1.62,2.3c0,1.09.87,2.21,2.37,3.08L268,290.23c3,1.72,7.51,1.92,10.08.43l37.73-21.78a2.78,2.78,0,0,0,1.62-2.29c0-1.1-.87-2.22-2.37-3.1l-36.23-20.91A11.85,11.85,0,0,0,273.11,241.15Z"/><path class="cls-67" d="M235.74,184.07h15.88l17.68-10.21c2.28-1.31,6.26-1.15,8.89.37l17,9.84H311.1v46h0a2.59,2.59,0,0,1-1.53,2.38l-32,18.49c-2.28,1.31-6.26,1.15-8.89-.37l-30.74-17.76a3.75,3.75,0,0,1-2.17-2.74h0Z"/><path class="cls-68" d="M237.92,232l30.74,17.75c2.63,1.52,6.61,1.68,8.89.37l32-18.49a2.58,2.58,0,0,0,1.53-2.38h0V230h0a2.59,2.59,0,0,1-1.53,2.38l-32,18.49c-2.28,1.31-6.26,1.15-8.89-.37l-30.74-17.76a3.75,3.75,0,0,1-2.17-2.74h0v-.74h0A3.78,3.78,0,0,0,237.92,232Z"/><path class="cls-18" d="M310.1,230.76h0V184.81H294.23L277.18,175c-2.63-1.52-6.6-1.69-8.88-.37l-17.68,10.21H235.74v-.74h15.88l17.68-10.21c2.28-1.31,6.26-1.15,8.89.37l17,9.84H311.1v46h0a2.59,2.59,0,0,1-1.53,2.38l-.18.1A2.24,2.24,0,0,0,310.1,230.76Z"/><path class="cls-9" d="M236.64,184.93v45.9h0a2.81,2.81,0,0,0,.76,1.62,3.44,3.44,0,0,1-1.66-2.42h0V184.18A4.27,4.27,0,0,1,236.64,184.93Z"/><path class="cls-69" d="M277.55,204.94l32-18.49c2.28-1.31,2-3.61-.64-5.13l-30.74-17.75c-2.63-1.52-6.61-1.68-8.89-.37l-32,18.49c-2.28,1.32-2,3.61.64,5.13l30.74,17.75C271.29,206.09,275.27,206.26,277.55,204.94Z"/><path class="cls-9" d="M237.28,181.69l32-18.49a8.25,8.25,0,0,1,4.49-.86,7.34,7.34,0,0,0-3.23.86l-32,18.49c-2.28,1.32-2,3.61.64,5.13l30.75,17.75a10.12,10.12,0,0,0,4.4,1.24,10.54,10.54,0,0,1-5.66-1.24l-30.74-17.75C235.29,185.3,235,183,237.28,181.69Z"/><path class="cls-70" d="M276.49,199.61l23.85-13.77c1.69-1,1.48-2.69-.48-3.82L277,168.81a7.34,7.34,0,0,0-6.61-.28L246.51,182.3c-1.69,1-1.48,2.69.48,3.82l22.89,13.21A7.34,7.34,0,0,0,276.49,199.61Z"/><path class="cls-39" d="M275.65,195.33l17.27-10c1.23-.7,1.08-1.94-.34-2.76L276,173a5.35,5.35,0,0,0-4.79-.2l-17.27,10c-1.23.71-1.08,1.94.34,2.76l16.59,9.58A5.32,5.32,0,0,0,275.65,195.33Z"/><path class="cls-18" d="M276.11,204.94l32-18.49c2.27-1.31,2-3.61-.64-5.13l-30.75-17.75a10.16,10.16,0,0,0-4.33-1.23,10.49,10.49,0,0,1,5.77,1.23l30.74,17.75c2.63,1.52,2.92,3.82.64,5.13l-32,18.49a8.31,8.31,0,0,1-4.56.86A7.34,7.34,0,0,0,276.11,204.94Z"/><g class="cls-71"><path class="cls-27" d="M292.59,183.94,276,174.36a5.32,5.32,0,0,0-4.79-.2l-17.28,10a1.68,1.68,0,0,0-.6.54,1.27,1.27,0,0,1,.6-1.89l17.28-10a5.32,5.32,0,0,1,4.79.2l16.6,9.58c1.1.64,1.43,1.52.94,2.22A2.67,2.67,0,0,0,292.59,183.94Z"/><path class="cls-41" d="M292.59,185.56,276,176a5.32,5.32,0,0,0-4.79-.2l-17.28,10a1.79,1.79,0,0,0-.5.43,1.29,1.29,0,0,1,.5-2.05l17.28-10a5.32,5.32,0,0,1,4.79.2l16.6,9.58c1.16.67,1.46,1.63.85,2.34A3.12,3.12,0,0,0,292.59,185.56Z"/><path class="cls-42" d="M293.27,188.09a2.94,2.94,0,0,0-.68-.54L276,178a5.32,5.32,0,0,0-4.79-.2l-17.28,10a2.3,2.3,0,0,0-.34.25,1.32,1.32,0,0,1,.34-2.24l17.28-10a5.32,5.32,0,0,1,4.79.2l16.6,9.57C293.85,186.3,294.1,187.36,293.27,188.09Z"/></g><path class="cls-39" d="M262.38,238.8l1.78,1c.46.27.83,0,.83-.62V214.4a2,2,0,0,0-.83-1.59l-1.78-1c-.45-.26-.82,0-.82.63v24.8A2,2,0,0,0,262.38,238.8Z"/><path class="cls-27" d="M262.38,211.79l.43.25v24.35a2,2,0,0,0,.83,1.58l1.35.78v.45c0,.61-.37.89-.83.62l-1.78-1a2,2,0,0,1-.82-1.58v-24.8C261.56,211.81,261.93,211.53,262.38,211.79Z"/><path class="cls-39" d="M255.84,235l1.77,1c.46.27.83,0,.83-.62v-24.8a2,2,0,0,0-.83-1.58l-1.77-1c-.46-.26-.83,0-.83.63v24.8A2,2,0,0,0,255.84,235Z"/><path class="cls-39" d="M249.3,231.24l1.77,1c.46.26.83,0,.83-.63v-24.8a2,2,0,0,0-.83-1.58l-1.77-1c-.46-.26-.83,0-.83.63v24.8A2,2,0,0,0,249.3,231.24Z"/><path class="cls-39" d="M242.75,227.46l1.78,1c.45.26.82,0,.82-.63v-24.8a2,2,0,0,0-.82-1.58l-1.78-1c-.45-.27-.83,0-.83.62v24.8A2,2,0,0,0,242.75,227.46Z"/><path class="cls-27" d="M255.84,208l.42.25v24.35a2,2,0,0,0,.83,1.58l1.35.78v.45c0,.61-.37.89-.83.62l-1.77-1a2,2,0,0,1-.83-1.58v-24.8C255,208,255.38,207.75,255.84,208Z"/><path class="cls-27" d="M249.3,204.23l.42.25v24.35a2,2,0,0,0,.83,1.58l1.35.78v.45c0,.61-.37.89-.83.63l-1.77-1a2,2,0,0,1-.83-1.58v-24.8C248.47,204.25,248.84,204,249.3,204.23Z"/><path class="cls-27" d="M242.75,200.46l.43.24v24.35a2,2,0,0,0,.83,1.59l1.34.78v.44c0,.61-.37.89-.82.63l-1.78-1a2,2,0,0,1-.83-1.58v-24.8C241.92,200.47,242.3,200.19,242.75,200.46Z"/><path class="cls-63" d="M280.19,241.84a.94.94,0,0,1-.47-.12,1.41,1.41,0,0,1-.58-1.28V214.19a3.35,3.35,0,0,1,1.43-2.71l23.13-13.35a1.09,1.09,0,0,1,1.12-.07,1.4,1.4,0,0,1,.58,1.28v26.25A3.38,3.38,0,0,1,304,228.3l-23.13,13.35A1.27,1.27,0,0,1,280.19,241.84Zm24.16-43.36a.78.78,0,0,0-.38.12L280.84,212a2.86,2.86,0,0,0-1.16,2.24v26.25a1,1,0,0,0,.31.81.63.63,0,0,0,.58-.07l23.13-13.36a2.85,2.85,0,0,0,1.16-2.23V199.34a.91.91,0,0,0-.32-.81A.45.45,0,0,0,304.35,198.48Z"/><path class="cls-39" d="M300.88,204.49c0,.71.5,1,1.12.65a2.51,2.51,0,0,0,1.13-1.95c0-.72-.51-1-1.13-.65A2.47,2.47,0,0,0,300.88,204.49Z"/><ellipse class="cls-39" cx="302" cy="207.49" rx="1.59" ry="0.92" transform="translate(-28.69 365.28) rotate(-60)"/><path class="cls-39" d="M300.88,211.79c0,.72.5,1,1.12.65a2.5,2.5,0,0,0,1.13-1.95c0-.72-.51-1-1.13-.65A2.49,2.49,0,0,0,300.88,211.79Z"/><path class="cls-27" d="M301.44,212a2.47,2.47,0,0,0,1.12-2,1.29,1.29,0,0,0-.05-.35c.36,0,.62.29.62.8a2.5,2.5,0,0,1-1.13,1.95c-.5.29-.93.15-1.07-.3A1,1,0,0,0,301.44,212Z"/><path class="cls-27" d="M301.44,208.34a2.49,2.49,0,0,0,1.12-2,1.23,1.23,0,0,0-.05-.35c.36,0,.62.29.62.8a2.51,2.51,0,0,1-1.13,1.95c-.5.29-.93.14-1.07-.3A1,1,0,0,0,301.44,208.34Z"/><path class="cls-27" d="M301.44,204.69a2.5,2.5,0,0,0,1.12-1.95,1.3,1.3,0,0,0-.05-.36c.36,0,.62.29.62.8a2.5,2.5,0,0,1-1.13,1.95c-.5.29-.93.15-1.07-.3A1.09,1.09,0,0,0,301.44,204.69Z"/><path class="cls-63" d="M282.27,228.74l.75-.43a1,1,0,0,0,.42-.8v-3.58c0-.31-.19-.45-.42-.32l-.75.43a1,1,0,0,0-.42.8v3.58C281.85,228.73,282,228.87,282.27,228.74Z"/><path class="cls-72" d="M253.1,97.57h40.62v86.6h0a1.4,1.4,0,0,1-.83,1.19l-17.26,10a5.32,5.32,0,0,1-4.79-.2l-16.57-9.57a2,2,0,0,1-1.16-1.48h0Z"/><path class="cls-73" d="M255,105.82h36.76V184.2h0a1.28,1.28,0,0,1-.75,1.08l-15.62,9a4.81,4.81,0,0,1-4.33-.18l-15-8.66a1.84,1.84,0,0,1-1.06-1.34h0Z"/><path class="cls-39" d="M281.53,176.91a1.52,1.52,0,1,0,1.52-1.51A1.52,1.52,0,0,0,281.53,176.91Z"/><path class="cls-39" d="M269.06,166.77a2.59,2.59,0,1,0,2.58-2.59A2.59,2.59,0,0,0,269.06,166.77Z"/><path class="cls-39" d="M274.16,165.12a.67.67,0,1,0,.66-.66A.66.66,0,0,0,274.16,165.12Z"/><circle class="cls-39" cx="263.55" cy="152.15" r="1.29"/><path class="cls-39" d="M269.44,141.18a.91.91,0,1,0,.91-.91A.92.92,0,0,0,269.44,141.18Z"/><path class="cls-39" d="M279.88,134.19a1.66,1.66,0,1,0,1.65-1.65A1.65,1.65,0,0,0,279.88,134.19Z"/><path class="cls-39" d="M275.76,120.35a.92.92,0,1,0,.92-.93A.92.92,0,0,0,275.76,120.35Z"/><path class="cls-39" d="M268.62,126.49a1.09,1.09,0,1,0,1.09-1.09A1.08,1.08,0,0,0,268.62,126.49Z"/><path class="cls-39" d="M267.82,124.22a.52.52,0,0,0,.52.53.53.53,0,0,0,.53-.53.52.52,0,0,0-.53-.52A.52.52,0,0,0,267.82,124.22Z"/><path class="cls-39" d="M261,112.93a1.52,1.52,0,1,0,1.52-1.52A1.52,1.52,0,0,0,261,112.93Z"/><path class="cls-14" d="M167.48,286.92l32-18.49c2.28-1.31,2-3.61-.64-5.13l-30.75-17.75c-2.63-1.52-6.6-1.68-8.88-.37l-32,18.49c-2.28,1.31-2,3.61.63,5.13l30.75,17.75C161.22,288.07,165.2,288.23,167.48,286.92Z"/><path class="cls-74" d="M163.67,292.05a12.68,12.68,0,0,1-6.12-1.52l-36.22-20.91c-1.74-1-2.75-2.38-2.75-3.75a3.48,3.48,0,0,1,2-2.95l37.73-21.78c2.78-1.61,7.64-1.41,10.84.43l36.22,20.91c1.75,1,2.75,2.38,2.75,3.75a3.48,3.48,0,0,1-2,2.95L168.4,291A9.67,9.67,0,0,1,163.67,292.05ZM163,240.8a8.88,8.88,0,0,0-4.35,1L121,263.57a2.79,2.79,0,0,0-1.62,2.3c0,1.09.86,2.22,2.37,3.09l36.22,20.91c3,1.73,7.52,1.92,10.09.44l37.72-21.78a2.78,2.78,0,0,0,1.63-2.3c0-1.09-.87-2.22-2.38-3.09l-36.22-20.91A11.74,11.74,0,0,0,163,240.8Z"/><path class="cls-75" d="M125.67,183.72h15.88l17.68-10.21c2.28-1.32,6.25-1.15,8.88.37l17,9.84H201v45.95h0a2.59,2.59,0,0,1-1.53,2.38l-32,18.49c-2.28,1.31-6.26,1.15-8.89-.37l-30.75-17.75a3.79,3.79,0,0,1-2.16-2.75h0Z"/><path class="cls-76" d="M127.84,231.68l30.75,17.76c2.63,1.52,6.61,1.68,8.89.37l32-18.49a2.6,2.6,0,0,0,1.53-2.38h0v.73h0a2.59,2.59,0,0,1-1.53,2.38l-32,18.49c-2.28,1.31-6.26,1.15-8.89-.37l-30.75-17.75a3.79,3.79,0,0,1-2.16-2.75h0v-.73h0A3.76,3.76,0,0,0,127.84,231.68Z"/><path class="cls-18" d="M200,230.41h0v-46H184.15l-17-9.84c-2.63-1.52-6.6-1.68-8.88-.37l-17.68,10.21H125.67v-.73h15.88l17.68-10.21c2.28-1.32,6.25-1.15,8.88.37l17,9.84H201v45.95h0a2.59,2.59,0,0,1-1.53,2.38l-.18.1A2.21,2.21,0,0,0,200,230.41Z"/><path class="cls-9" d="M126.57,184.57v45.9h0a2.83,2.83,0,0,0,.76,1.63,3.44,3.44,0,0,1-1.66-2.43h0V183.83A4.85,4.85,0,0,1,126.57,184.57Z"/><path class="cls-77" d="M167.48,204.59l32-18.49c2.28-1.32,2-3.61-.64-5.13l-30.75-17.76c-2.63-1.51-6.6-1.68-8.88-.36l-32,18.49c-2.28,1.31-2,3.61.63,5.12l30.75,17.76C161.22,205.74,165.2,205.9,167.48,204.59Z"/><path class="cls-9" d="M127.21,181.34l32-18.49a8.24,8.24,0,0,1,4.48-.87,7.38,7.38,0,0,0-3.23.87l-32,18.49c-2.28,1.31-2,3.61.64,5.12l30.74,17.76a10.19,10.19,0,0,0,4.41,1.23,10.43,10.43,0,0,1-5.66-1.23l-30.75-17.76C125.21,185,124.93,182.65,127.21,181.34Z"/><path class="cls-78" d="M166.42,199.25l23.84-13.76c1.7-1,1.49-2.69-.47-3.82L166.9,168.45a7.36,7.36,0,0,0-6.62-.27l-23.84,13.76c-1.69,1-1.48,2.69.48,3.82L159.81,199A7.34,7.34,0,0,0,166.42,199.25Z"/><path class="cls-39" d="M165.58,195l17.27-10c1.23-.71,1.07-1.95-.34-2.77l-16.59-9.57a5.32,5.32,0,0,0-4.79-.2l-17.27,10c-1.23.71-1.08,1.95.34,2.77l16.58,9.57A5.34,5.34,0,0,0,165.58,195Z"/><path class="cls-18" d="M166,204.59l32-18.49c2.28-1.32,2-3.61-.63-5.13l-30.75-17.76a10,10,0,0,0-4.33-1.22,10.52,10.52,0,0,1,5.76,1.22L198.86,181c2.63,1.52,2.92,3.81.64,5.13l-32,18.49a8.42,8.42,0,0,1-4.56.86A7.49,7.49,0,0,0,166,204.59Z"/><g class="cls-79"><path class="cls-27" d="M182.51,183.58,165.92,174a5.35,5.35,0,0,0-4.79-.2l-17.28,10a2,2,0,0,0-.61.54,1.29,1.29,0,0,1,.61-1.89l17.28-10a5.31,5.31,0,0,1,4.79.19l16.59,9.58c1.11.64,1.43,1.53,1,2.23A2.56,2.56,0,0,0,182.51,183.58Z"/><path class="cls-41" d="M182.51,185.21l-16.59-9.58a5.32,5.32,0,0,0-4.79-.2l-17.28,10a1.82,1.82,0,0,0-.51.42,1.29,1.29,0,0,1,.51-2.05l17.28-10a5.35,5.35,0,0,1,4.79.2l16.59,9.58c1.17.68,1.47,1.63.85,2.35A2.71,2.71,0,0,0,182.51,185.21Z"/><path class="cls-42" d="M183.2,187.73a3,3,0,0,0-.69-.53l-16.59-9.58a5.32,5.32,0,0,0-4.79-.2l-17.28,10a2.3,2.3,0,0,0-.34.25,1.3,1.3,0,0,1,.34-2.23l17.28-10a5.32,5.32,0,0,1,4.79.2l16.59,9.58C183.78,185.94,184,187,183.2,187.73Z"/></g><path class="cls-39" d="M152.31,238.44l1.78,1c.45.26.82,0,.82-.63V214a2,2,0,0,0-.82-1.58l-1.78-1c-.46-.26-.83,0-.83.63v24.8A2,2,0,0,0,152.31,238.44Z"/><path class="cls-27" d="M152.31,211.43l.43.25V236a2,2,0,0,0,.82,1.58l1.35.78v.45c0,.61-.37.89-.82.63l-1.78-1a2,2,0,0,1-.83-1.58v-24.8C151.48,211.45,151.85,211.17,152.31,211.43Z"/><path class="cls-39" d="M145.77,234.66l1.77,1c.46.26.83,0,.83-.63v-24.8a2,2,0,0,0-.83-1.58l-1.77-1c-.46-.27-.83,0-.83.62v24.8A2,2,0,0,0,145.77,234.66Z"/><path class="cls-39" d="M139.22,230.89l1.78,1c.46.27.83,0,.83-.62v-24.8a2,2,0,0,0-.83-1.59l-1.78-1c-.45-.27-.82,0-.82.62v24.8A2,2,0,0,0,139.22,230.89Z"/><path class="cls-39" d="M132.68,227.11l1.78,1c.45.27.82,0,.82-.62v-24.8a2,2,0,0,0-.82-1.58l-1.78-1c-.46-.26-.83,0-.83.63v24.8A2,2,0,0,0,132.68,227.11Z"/><path class="cls-27" d="M145.77,207.66l.42.24v24.36a2,2,0,0,0,.83,1.58l1.35.78v.44c0,.61-.37.89-.83.63l-1.77-1a2,2,0,0,1-.83-1.58v-24.8C144.94,207.67,145.31,207.39,145.77,207.66Z"/><path class="cls-27" d="M139.22,203.88l.43.24v24.36a2,2,0,0,0,.83,1.58l1.35.78v.45c0,.61-.37.89-.83.62l-1.78-1a2,2,0,0,1-.82-1.58V204.5C138.4,203.89,138.77,203.61,139.22,203.88Z"/><path class="cls-27" d="M132.68,200.1l.43.25V224.7a2,2,0,0,0,.82,1.58l1.35.78v.45c0,.61-.37.89-.82.62l-1.78-1a2,2,0,0,1-.83-1.58v-24.8C131.85,200.12,132.22,199.84,132.68,200.1Z"/><path class="cls-63" d="M170.12,241.49a1,1,0,0,1-.47-.13,1.4,1.4,0,0,1-.58-1.28V213.84a3.32,3.32,0,0,1,1.43-2.71l23.12-13.36a1.08,1.08,0,0,1,1.12-.06,1.41,1.41,0,0,1,.59,1.28v26.24a3.35,3.35,0,0,1-1.43,2.71l-23.13,13.35A1.32,1.32,0,0,1,170.12,241.49Zm24.15-43.36a.77.77,0,0,0-.37.12L170.77,211.6a2.85,2.85,0,0,0-1.16,2.24v26.24a.92.92,0,0,0,.31.81.6.6,0,0,0,.58-.07l23.12-13.35a2.85,2.85,0,0,0,1.16-2.24V199a.9.9,0,0,0-.31-.81A.35.35,0,0,0,194.27,198.13Z"/><path class="cls-39" d="M190.8,204.13c0,.72.51,1,1.13.65a2.49,2.49,0,0,0,1.12-1.95c0-.72-.5-1-1.12-.65A2.5,2.5,0,0,0,190.8,204.13Z"/><ellipse class="cls-39" cx="191.93" cy="207.13" rx="1.59" ry="0.92" transform="translate(-83.42 269.78) rotate(-60)"/><path class="cls-39" d="M190.8,211.43c0,.72.51,1,1.13.65a2.47,2.47,0,0,0,1.12-2c0-.71-.5-1-1.12-.65A2.51,2.51,0,0,0,190.8,211.43Z"/><path class="cls-27" d="M191.37,211.64a2.49,2.49,0,0,0,1.12-1.95,1.18,1.18,0,0,0-.05-.35c.36,0,.61.29.61.79a2.47,2.47,0,0,1-1.12,2c-.51.3-.93.15-1.07-.29A1,1,0,0,0,191.37,211.64Z"/><path class="cls-27" d="M191.37,208a2.5,2.5,0,0,0,1.12-2,1.3,1.3,0,0,0-.05-.36c.36,0,.61.29.61.8a2.49,2.49,0,0,1-1.12,2c-.51.29-.93.15-1.07-.3A1.09,1.09,0,0,0,191.37,208Z"/><path class="cls-27" d="M191.37,204.33a2.49,2.49,0,0,0,1.12-2,1.23,1.23,0,0,0-.05-.35c.36,0,.61.29.61.8a2.5,2.5,0,0,1-1.12,1.95c-.51.29-.93.15-1.07-.3A1,1,0,0,0,191.37,204.33Z"/><path class="cls-63" d="M172.2,228.39,173,228a1,1,0,0,0,.41-.81v-3.58c0-.3-.18-.45-.41-.31l-.75.43a1,1,0,0,0-.42.8v3.58C171.78,228.38,172,228.52,172.2,228.39Z"/><path class="cls-80" d="M142.66,97.36l40.62-.3.65,86.6h0a1.42,1.42,0,0,1-.82,1.2L165.93,195a5.34,5.34,0,0,1-4.79-.17l-16.65-9.44a2,2,0,0,1-1.18-1.47h0Z"/><path class="cls-81" d="M144.65,105.61l36.76-.28.59,78.38h0a1.28,1.28,0,0,1-.74,1.08l-15.55,9.14a4.83,4.83,0,0,1-4.34-.15l-15.06-8.54a1.86,1.86,0,0,1-1.07-1.34h0Z"/><path class="cls-39" d="M171.46,176.55A1.52,1.52,0,1,0,173,175,1.52,1.52,0,0,0,171.46,176.55Z"/><path class="cls-39" d="M159,166.41a2.58,2.58,0,1,0,2.58-2.58A2.57,2.57,0,0,0,159,166.41Z"/><path class="cls-39" d="M164.09,164.76a.67.67,0,1,0,.66-.66A.67.67,0,0,0,164.09,164.76Z"/><circle class="cls-39" cx="153.47" cy="151.79" r="1.29"/><path class="cls-39" d="M159.37,140.83a.91.91,0,1,0,.91-.91A.91.91,0,0,0,159.37,140.83Z"/><path class="cls-39" d="M169.81,133.84a1.66,1.66,0,1,0,1.65-1.66A1.65,1.65,0,0,0,169.81,133.84Z"/><path class="cls-39" d="M165.69,120a.92.92,0,1,0,.92-.92A.92.92,0,0,0,165.69,120Z"/><path class="cls-39" d="M158.55,126.13a1.09,1.09,0,1,0,2.17,0,1.09,1.09,0,0,0-2.17,0Z"/><path class="cls-39" d="M157.74,123.87a.52.52,0,0,0,.53.52.52.52,0,0,0,.52-.52.52.52,0,0,0-.52-.53A.53.53,0,0,0,157.74,123.87Z"/><path class="cls-39" d="M150.92,112.57a1.52,1.52,0,1,0,1.52-1.52A1.52,1.52,0,0,0,150.92,112.57Z"/><path class="cls-14" d="M223,321.41l32-18.49c2.27-1.31,2-3.61-.64-5.13L223.64,280c-2.63-1.52-6.61-1.68-8.88-.37l-32,18.49c-2.28,1.32-2,3.61.64,5.13L214.12,321C216.75,322.56,220.72,322.73,223,321.41Z"/><path class="cls-82" d="M219.19,326.54a12.5,12.5,0,0,1-6.11-1.52l-36.22-20.91c-1.75-1-2.75-2.38-2.75-3.75a3.48,3.48,0,0,1,2-2.95l37.72-21.78c2.78-1.61,7.65-1.41,10.85.43L260.9,297c1.75,1,2.75,2.37,2.75,3.74a3.48,3.48,0,0,1-2,2.95l-37.73,21.78A9.64,9.64,0,0,1,219.19,326.54Zm-.62-51.26a8.89,8.89,0,0,0-4.36,1l-37.72,21.78a2.78,2.78,0,0,0-1.63,2.3c0,1.09.87,2.22,2.38,3.09l36.22,20.91c3,1.73,7.51,1.92,10.09.44h0L261.27,303a2.77,2.77,0,0,0,1.62-2.3c0-1.09-.86-2.22-2.37-3.09L224.3,276.72A11.75,11.75,0,0,0,218.57,275.28Z"/><path class="cls-83" d="M181.19,218.21h15.89L214.76,208c2.27-1.32,6.25-1.15,8.88.37l17,9.84h15.88v46h0a2.57,2.57,0,0,1-1.52,2.38L223,285c-2.28,1.32-6.25,1.15-8.88-.37l-30.75-17.75a3.76,3.76,0,0,1-2.16-2.75h0Z"/><path class="cls-84" d="M183.37,266.18l30.75,17.75c2.63,1.52,6.6,1.68,8.88.37l32-18.49a2.57,2.57,0,0,0,1.52-2.38h0v.73h0a2.57,2.57,0,0,1-1.52,2.38L223,285c-2.28,1.32-6.25,1.15-8.88-.37l-30.75-17.75a3.76,3.76,0,0,1-2.16-2.75h0v-.73h0A3.76,3.76,0,0,0,183.37,266.18Z"/><path class="cls-18" d="M255.55,264.9h0v-46H239.68l-17-9.84c-2.63-1.52-6.61-1.68-8.89-.37l-17.68,10.21H181.19v-.73h15.89L214.76,208c2.27-1.32,6.25-1.15,8.88.37l17,9.84h15.88v46h0a2.57,2.57,0,0,1-1.52,2.38l-.18.11A2.27,2.27,0,0,0,255.55,264.9Z"/><path class="cls-9" d="M182.1,219.06V265h0a2.83,2.83,0,0,0,.76,1.63,3.44,3.44,0,0,1-1.66-2.43h0V218.32A4.61,4.61,0,0,1,182.1,219.06Z"/><path class="cls-85" d="M223,239.08l32-18.49c2.27-1.32,2-3.61-.64-5.13l-30.75-17.75c-2.63-1.52-6.61-1.69-8.88-.37l-32,18.49c-2.28,1.31-2,3.61.64,5.13l30.75,17.75C216.75,240.23,220.72,240.39,223,239.08Z"/><path class="cls-9" d="M182.73,215.83l32-18.49a8.31,8.31,0,0,1,4.48-.87,7.38,7.38,0,0,0-3.23.87l-32,18.49c-2.27,1.31-2,3.61.64,5.13l30.75,17.75a10.19,10.19,0,0,0,4.4,1.23,10.41,10.41,0,0,1-5.65-1.23L183.37,221C180.74,219.44,180.45,217.14,182.73,215.83Z"/><path class="cls-86" d="M222,233.74,245.79,220c1.7-1,1.48-2.69-.47-3.82l-22.9-13.22a7.34,7.34,0,0,0-6.61-.27L192,216.43c-1.7,1-1.49,2.69.47,3.82l22.89,13.22A7.36,7.36,0,0,0,222,233.74Z"/><path class="cls-39" d="M221.1,229.46l17.28-10c1.22-.71,1.07-2-.35-2.77l-16.58-9.57a5.32,5.32,0,0,0-4.79-.2l-17.28,10c-1.23.71-1.07,2,.35,2.77l16.58,9.57A5.32,5.32,0,0,0,221.1,229.46Z"/><path class="cls-18" d="M221.56,239.08l32-18.49c2.28-1.32,2-3.61-.64-5.13L222.2,197.71a9.85,9.85,0,0,0-4.33-1.23,10.45,10.45,0,0,1,5.77,1.23l30.75,17.75c2.63,1.52,2.91,3.81.64,5.13l-32,18.49a8.29,8.29,0,0,1-4.55.86A7.44,7.44,0,0,0,221.56,239.08Z"/><g class="cls-87"><path class="cls-27" d="M238,218.07l-16.59-9.58a5.37,5.37,0,0,0-4.8-.19l-17.28,10a1.9,1.9,0,0,0-.6.55,1.29,1.29,0,0,1,.6-1.9l17.28-10a5.37,5.37,0,0,1,4.8.19L238,216.72c1.1.64,1.43,1.53,1,2.23A2.56,2.56,0,0,0,238,218.07Z"/><path class="cls-41" d="M238,219.7l-16.59-9.58a5.34,5.34,0,0,0-4.8-.2l-17.28,10a1.92,1.92,0,0,0-.5.42,1.29,1.29,0,0,1,.5-2l17.28-10a5.37,5.37,0,0,1,4.8.19L238,218.07c1.17.68,1.46,1.63.85,2.35A3,3,0,0,0,238,219.7Z"/><path class="cls-42" d="M238.72,222.22a2.92,2.92,0,0,0-.68-.53l-16.59-9.58a5.34,5.34,0,0,0-4.8-.2l-17.28,10a2.16,2.16,0,0,0-.33.24,1.31,1.31,0,0,1,.33-2.23l17.28-10a5.34,5.34,0,0,1,4.8.2L238,219.7C239.31,220.43,239.56,221.5,238.72,222.22Z"/></g><path class="cls-39" d="M207.84,272.93l1.77,1c.46.26.83,0,.83-.63v-24.8a2,2,0,0,0-.83-1.58l-1.77-1c-.46-.27-.83,0-.83.62v24.8A2,2,0,0,0,207.84,272.93Z"/><path class="cls-27" d="M207.84,245.93l.42.24v24.35a2,2,0,0,0,.83,1.59l1.35.77v.45c0,.61-.37.89-.83.63l-1.77-1a2,2,0,0,1-.83-1.58v-24.8C207,245.94,207.38,245.66,207.84,245.93Z"/><path class="cls-39" d="M201.29,269.16l1.78,1c.46.26.83,0,.83-.63v-24.8a2,2,0,0,0-.83-1.58l-1.78-1c-.45-.27-.82,0-.82.62v24.8A2,2,0,0,0,201.29,269.16Z"/><path class="cls-39" d="M194.75,265.38l1.77,1c.46.27.83,0,.83-.62V241a2,2,0,0,0-.83-1.59l-1.77-1c-.46-.26-.83,0-.83.63v24.8A2,2,0,0,0,194.75,265.38Z"/><path class="cls-39" d="M188.21,261.6l1.77,1c.46.27.83,0,.83-.62V237.2a2,2,0,0,0-.83-1.58l-1.77-1c-.46-.26-.83,0-.83.63V260A2,2,0,0,0,188.21,261.6Z"/><path class="cls-27" d="M201.29,242.15l.43.24v24.36a2,2,0,0,0,.83,1.58l1.35.78v.44c0,.61-.37.89-.83.63l-1.78-1a2,2,0,0,1-.82-1.59v-24.8C200.47,242.16,200.84,241.88,201.29,242.15Z"/><path class="cls-27" d="M194.75,238.37l.42.25V263a2,2,0,0,0,.83,1.58l1.35.78v.45c0,.61-.37.89-.83.62l-1.77-1a2,2,0,0,1-.83-1.58V239C193.92,238.39,194.29,238.11,194.75,238.37Z"/><path class="cls-27" d="M188.21,234.59l.42.25v24.35a2,2,0,0,0,.83,1.58l1.35.78V262c0,.61-.37.89-.83.62l-1.77-1a2,2,0,0,1-.83-1.58v-24.8C187.38,234.61,187.75,234.33,188.21,234.59Z"/><path class="cls-63" d="M225.64,276a.9.9,0,0,1-.47-.13,1.4,1.4,0,0,1-.58-1.28V248.33a3.35,3.35,0,0,1,1.43-2.71l23.13-13.35a1.06,1.06,0,0,1,1.12-.07,1.4,1.4,0,0,1,.58,1.28v26.24a3.35,3.35,0,0,1-1.43,2.71l-23.13,13.35A1.29,1.29,0,0,1,225.64,276Zm24.16-43.36a.81.81,0,0,0-.38.12l-23.13,13.35a2.87,2.87,0,0,0-1.16,2.24v26.24a.9.9,0,0,0,.32.81.56.56,0,0,0,.57-.07L249.15,262a2.85,2.85,0,0,0,1.16-2.24V233.48a.92.92,0,0,0-.31-.81A.37.37,0,0,0,249.8,232.62Z"/><path class="cls-39" d="M246.33,238.62c0,.72.5,1,1.12.65a2.47,2.47,0,0,0,1.13-2c0-.72-.5-1-1.13-.65A2.49,2.49,0,0,0,246.33,238.62Z"/><path class="cls-39" d="M246.33,242.27c0,.72.5,1,1.12.65a2.47,2.47,0,0,0,1.13-1.95c0-.71-.5-1-1.13-.65A2.5,2.5,0,0,0,246.33,242.27Z"/><ellipse class="cls-39" cx="247.45" cy="245.28" rx="1.59" ry="0.92" transform="translate(-88.69 336.94) rotate(-60)"/><path class="cls-27" d="M246.89,246.13a2.5,2.5,0,0,0,1.13-1.95,1.22,1.22,0,0,0-.06-.35c.37,0,.62.29.62.8a2.48,2.48,0,0,1-1.13,2c-.5.29-.92.14-1.07-.3A1,1,0,0,0,246.89,246.13Z"/><path class="cls-27" d="M246.89,242.48a2.51,2.51,0,0,0,1.13-1.95,1.29,1.29,0,0,0-.06-.36c.37,0,.62.29.62.8a2.47,2.47,0,0,1-1.13,1.95c-.5.29-.92.15-1.07-.3A1,1,0,0,0,246.89,242.48Z"/><path class="cls-27" d="M246.89,238.82a2.5,2.5,0,0,0,1.13-1.95,1.22,1.22,0,0,0-.06-.35c.37,0,.62.29.62.8a2.48,2.48,0,0,1-1.13,2c-.5.29-.92.15-1.07-.3A1,1,0,0,0,246.89,238.82Z"/><path class="cls-63" d="M227.73,262.88l.74-.43a1,1,0,0,0,.42-.81v-3.57c0-.31-.19-.46-.42-.32l-.74.43a1,1,0,0,0-.42.8v3.58C227.31,262.87,227.49,263,227.73,262.88Z"/><path class="cls-88" d="M198.55,131.7h40.62v86.6h0a1.42,1.42,0,0,1-.82,1.2l-17.26,10a5.34,5.34,0,0,1-4.79-.19l-16.58-9.57a2,2,0,0,1-1.16-1.48h0Z"/><path class="cls-89" d="M200.48,140h36.77v78.38h0a1.28,1.28,0,0,1-.74,1.08l-15.63,9a4.81,4.81,0,0,1-4.33-.18l-15-8.66a1.84,1.84,0,0,1-1-1.34h0Z"/><path class="cls-39" d="M227,211.05a1.51,1.51,0,1,0,1.51-1.52A1.52,1.52,0,0,0,227,211.05Z"/><path class="cls-39" d="M214.51,200.9a2.59,2.59,0,1,0,2.59-2.58A2.58,2.58,0,0,0,214.51,200.9Z"/><path class="cls-39" d="M219.61,199.26a.67.67,0,1,0,.67-.67A.67.67,0,0,0,219.61,199.26Z"/><path class="cls-39" d="M207.71,186.28A1.29,1.29,0,1,0,209,185,1.3,1.3,0,0,0,207.71,186.28Z"/><circle class="cls-39" cx="215.8" cy="175.32" r="0.91"/><circle class="cls-39" cx="226.99" cy="168.33" r="1.65"/><path class="cls-39" d="M214.51,156.61a3.35,3.35,0,1,0,3.35-3.35A3.34,3.34,0,0,0,214.51,156.61Z"/><path class="cls-39" d="M221.21,154.48a.93.93,0,1,0,.92-.92A.92.92,0,0,0,221.21,154.48Z"/><path class="cls-39" d="M214.08,160.62a1.09,1.09,0,1,0,1.08-1.08A1.08,1.08,0,0,0,214.08,160.62Z"/><path class="cls-39" d="M213.27,158.36a.52.52,0,0,0,.52.52.52.52,0,0,0,.53-.52.53.53,0,0,0-.53-.53A.52.52,0,0,0,213.27,158.36Z"/><circle class="cls-39" cx="207.96" cy="147.06" r="1.52"/></g></g></svg>